<?xml version="1.0" standalone="no"?>
<!DOCTYPE svg PUBLIC "-//W3C//DTD SVG 1.1//EN" "http://www.w3.org/Graphics/SVG/1.1/DTD/svg11.dtd" >
<svg xmlns="http://www.w3.org/2000/svg">
<metadata>
Created by FontPrep 20130207 at Tue Nov 22 19:22:16 2016
 By Andrey Drachev
Copyright (c) 2013 by Gayane Bagdasaryan, Dmitry Rastvortsev. All rights reserved.
</metadata>
<defs>
<font id="da1417a78f413faf5b2694e8ddb1ce0f" horiz-adv-x='1024' >
  <font-face 
    font-family="BrutalType-Medium"
    font-weight="500"
    font-stretch="normal"
    units-per-em="2048"
    panose-1="2 0 6 3 2 0 0 2 0 4"
    ascent="1647"
    descent="-401"
    x-height="1065"
    cap-height="1434"
    bbox="-102 -352 2263 1956"
    underline-thickness="102"
    underline-position="-102"
    unicode-range="U+000D-FB02"
  />
<missing-glyph horiz-adv-x="748" 
d="M136 68h408v1229h-408v-1229zM68 0v1365h544v-1365h-544z" />
    <glyph glyph-name="uniFB01" unicode="fi" horiz-adv-x="1259" 
d="M870 1219v225h226v-225h-226zM31 868v197h164v4q0 178 96.5 278.5t298.5 100.5q22 0 76 -4v-197h-48q-105 0 -151.5 -42t-46.5 -136v-4h676v-1065h-226v868h-450v-868h-225v868h-164z" />
    <glyph glyph-name="uniFB02" unicode="fl" horiz-adv-x="1259" 
d="M870 0v1444h226v-1444h-226zM31 868v197h164q0 180 96.5 281.5t298.5 101.5q22 0 76 -4v-197h-48q-106 0 -152 -42.5t-46 -139.5h231v-197h-231v-868h-225v868h-164z" />
    <glyph glyph-name=".notdef" horiz-adv-x="748" 
d="M136 68h408v1229h-408v-1229zM68 0v1365h544v-1365h-544z" />
    <glyph glyph-name="glyph1" horiz-adv-x="2048" 
 />
    <glyph glyph-name="glyph1" horiz-adv-x="2048" 
 />
    <glyph glyph-name="uni000D" unicode="&#xd;" horiz-adv-x="2048" 
 />
    <glyph glyph-name="space" unicode=" " horiz-adv-x="491" 
 />
    <glyph glyph-name="exclam" unicode="!" horiz-adv-x="606" 
d="M190 451v983h226v-983h-226zM184 0v252h238v-252h-238z" />
    <glyph glyph-name="quotedbl" unicode="&#x22;" horiz-adv-x="821" 
d="M473 1444h246v-92l-41 -418h-164l-41 418v92zM102 1444h246v-92l-41 -418h-164l-41 418v92z" />
    <glyph glyph-name="numbersign" unicode="#" horiz-adv-x="1402" 
d="M518 549h295l70 336h-295zM82 344v205h219l70 336h-197v205h240l71 344h201v-82l-55 -262h295l71 344h201v-82l-55 -262h178v-205h-221l-70 -336h199v-205h-240l-71 -344h-201v82l53 262h-293l-71 -344h-201v82l53 262h-176z" />
    <glyph glyph-name="dollar" unicode="$" horiz-adv-x="1232" 
d="M92 465h225q0 -147 83.5 -219t211.5 -72t194 54t66 142t-63 132q-52 39 -147 80l-115 49q-155 67 -203 94t-106 75t-82.5 109.5t-24.5 151.5q0 159 103 266.5t274 130.5v187h225v-193q153 -35 259 -154t106 -317h-226q0 143 -72 211t-189 68t-183 -52t-66 -124t41 -130
q17 -20 58 -43l69 -37q8 -3 21.5 -8t35 -14t40.5 -16l116 -50q185 -76 276 -160t91 -243q0 -158 -97.5 -269t-279.5 -137v-217h-225v215q-184 21 -300 147t-116 343z" />
    <glyph glyph-name="percent" unicode="%" horiz-adv-x="1622" 
d="M1104 250q0 -52 32.5 -85.5t86.5 -33.5t86 33.5t32 85.5v176q0 52 -32 85.5t-86 33.5t-86.5 -33.5t-32.5 -85.5v-176zM905 281v114q0 149 84 230.5t234 81.5t233.5 -81.5t83.5 -230.5v-114q0 -149 -83.5 -230.5t-233.5 -81.5t-234 81.5t-84 230.5zM307 0v82l830 1352h174
v-82l-830 -1352h-174zM281 1008q0 -52 32 -85.5t86 -33.5t86.5 33.5t32.5 85.5v176q0 52 -32.5 85.5t-86.5 33.5t-86 -33.5t-32 -85.5v-176zM82 1038v115q0 149 83.5 230t233.5 81t234 -81.5t84 -229.5v-115q0 -148 -84 -229.5t-234 -81.5t-233.5 81t-83.5 230z" />
    <glyph glyph-name="ampersand" unicode="&#x26;" horiz-adv-x="1402" 
d="M403 1122q0 -52 17 -82.5t65 -78.5l45 -48l70 56q84 69 84 153q0 56 -40 90.5t-102 34.5t-100.5 -36.5t-38.5 -88.5zM328 392q0 -98 69 -156t181 -58q157 0 266 103l-340 348l-74 -60q-102 -79 -102 -177zM102 362q0 115 52 203t174 187l30 24l-28 29q0 1 -26 29t-47 58
q-79 104 -79 237t104 226t266 93q161 0 257 -90t96 -249t-162 -290l-65 -53l291 -297q49 122 49 279h213q0 -247 -107 -439l201 -203v-106h-199l-135 135q-171 -160 -402 -160t-357 108t-126 279z" />
    <glyph glyph-name="quotesingle" unicode="'" horiz-adv-x="450" 
d="M102 1444h246v-92l-41 -418h-164l-41 418v92z" />
    <glyph glyph-name="parenleft" unicode="(" horiz-adv-x="645" 
d="M184 66v1110q0 185 100.5 289t278.5 104v-205q-70 0 -111.5 -49.5t-41.5 -126.5v-1135q0 -77 41.5 -126.5t111.5 -49.5v-205q-177 0 -278 104t-101 290z" />
    <glyph glyph-name="parenright" unicode=")" horiz-adv-x="645" 
d="M82 -123q71 0 112.5 49.5t41.5 126.5v1135q0 77 -41.5 126.5t-112.5 49.5v205q178 0 278.5 -104t100.5 -289v-1110q0 -186 -101 -290t-278 -104v205z" />
    <glyph glyph-name="asterisk" unicode="*" horiz-adv-x="911" 
d="M82 950l227 113l-227 113l88 155l211 -141l-14 254h178l-17 -254l213 141l88 -155l-229 -113l229 -113l-88 -155l-213 141l17 -254h-178l14 254l-211 -141z" />
    <glyph glyph-name="plus" unicode="+" horiz-adv-x="1146" 
d="M123 547v188h348v350h205v-350h348v-188h-348v-350h-205v350h-348z" />
    <glyph glyph-name="comma" unicode="," horiz-adv-x="544" 
d="M420 279v-107l-168 -403h-178l96 510h250z" />
    <glyph glyph-name="hyphen" unicode="-" horiz-adv-x="905" 
d="M123 539v204h659v-204h-659z" />
    <glyph glyph-name="period" unicode="." horiz-adv-x="563" 
d="M143 0v279h277v-279h-277z" />
    <glyph glyph-name="slash" unicode="/" horiz-adv-x="952" 
d="M870 1569v-82l-587 -1692h-201v82l588 1692h200z" />
    <glyph glyph-name="zero" unicode="0" horiz-adv-x="1249" 
d="M369 453q0 -125 68 -202t188 -77t188 77t68 202v528q0 125 -68 202t-188 77t-188 -77t-68 -202v-528zM143 465v504q0 232 129 363.5t353 131.5t352.5 -131.5t128.5 -363.5v-504q0 -232 -128.5 -364t-352.5 -132t-353 132t-129 364z" />
    <glyph glyph-name="one" unicode="1" horiz-adv-x="641" 
d="M82 1128v119l285 187h90v-1434h-226v1128h-149z" />
    <glyph glyph-name="two" unicode="2" horiz-adv-x="1148" 
d="M102 0v184l433 439q147 150 201 228q54 77 55 177q0 100 -60.5 166t-174.5 66t-175.5 -74.5t-63.5 -206.5h-215q3 227 128.5 356t335.5 129t330 -126t120 -290t-70 -274t-241 -278l-297 -291h614v-205h-920z" />
    <glyph glyph-name="three" unicode="3" horiz-adv-x="1198" 
d="M584 846q229 0 229 203q0 92 -56.5 151.5t-170.5 59.5t-177 -73.5t-65 -201.5h-215q1 228 122.5 353.5t333.5 125.5q213 0 331 -111t118 -282q0 -209 -184 -317q99 -36 162 -130t63 -216q0 -205 -129.5 -322t-355.5 -117t-358.5 129.5t-133.5 356.5h217q5 -127 79 -204
t200 -77t191 67t65 177t-66.5 166.5t-185.5 56.5h-100v205h86z" />
    <glyph glyph-name="four" unicode="4" horiz-adv-x="1132" 
d="M61 283v174l500 977h199v-82l-443 -865h379v355h226v-355h170v-204h-170v-283h-226v283h-635z" />
    <glyph glyph-name="five" unicode="5" horiz-adv-x="1218" 
d="M624 174q118 0 182 80t64 222t-67 222t-180 80q-146 0 -228 -116h-223l72 772h772v-205h-588l-33 -344q122 78 269 78q188 0 310 -118q122 -117 122 -361t-130 -379.5t-344 -135.5t-343 112t-152 312h221q14 -99 86 -159t190 -60z" />
    <glyph glyph-name="six" unicode="6" horiz-adv-x="1208" 
d="M348 454q0 -130 69.5 -205t196.5 -75t197 75t70 205t-67.5 201.5t-199.5 71.5t-199 -71.5t-67 -201.5zM123 465q0 150 139 377l371 592h207v-82l-305 -471q79 28 167 28q175 0 287 -118q117 -117 117 -337t-132 -352.5t-360 -132.5t-359.5 132t-131.5 364z" />
    <glyph glyph-name="seven" unicode="7" horiz-adv-x="1103" 
d="M82 1024v410h919v-191l-469 -1243h-202v82l438 1147h-477v-205h-209z" />
    <glyph glyph-name="eight" unicode="8" horiz-adv-x="1257" 
d="M385 1054q0 -98 67.5 -159t176.5 -61t176 61t67 159t-62 156t-180 58t-181.5 -58t-63.5 -156zM350 412q0 -106 73 -174t206 -68t205.5 68t72.5 175t-77 178t-201 71t-201.5 -72t-77.5 -178zM123 401q0 121 66.5 218t166.5 133q-194 114 -194 317q0 169 123 283
q125 112 345 112t343 -112t123 -283q0 -203 -193 -317q95 -34 163 -130t69 -221q0 -201 -134.5 -316.5t-371.5 -115.5t-371.5 115.5t-134.5 316.5z" />
    <glyph glyph-name="nine" unicode="9" horiz-adv-x="1208" 
d="M328 980q0 -130 67.5 -201.5t198.5 -71.5t198.5 71.5t67.5 201.5t-69.5 205t-196.5 75t-196.5 -75t-69.5 -205zM102 982q0 220 132 351t360 131t359.5 -131.5t131.5 -363.5q0 -150 -139 -377l-371 -592h-206v82l305 471q-82 -29 -168 -29q-172 0 -289 117
q-115 121 -115 341z" />
    <glyph glyph-name="colon" unicode=":" horiz-adv-x="563" 
d="M143 786v279h277v-279h-277zM143 0v279h277v-279h-277z" />
    <glyph glyph-name="semicolon" unicode=";" horiz-adv-x="555" 
d="M154 786v279h276v-279h-276zM420 279v-107l-168 -403h-178l96 510h250z" />
    <glyph glyph-name="less" unicode="&#x3c;" horiz-adv-x="1064" 
d="M942 1114v-160l-596 -305l596 -305v-160h-108l-711 373v184l711 373h108z" />
    <glyph glyph-name="equal" unicode="=" horiz-adv-x="1146" 
d="M123 768v188h901v-188h-901zM123 326v188h901v-188h-901z" />
    <glyph glyph-name="greater" unicode="&#x3e;" horiz-adv-x="1064" 
d="M123 184v160l596 305l-596 305v160h108l711 -373v-184l-711 -373h-108z" />
    <glyph glyph-name="question" unicode="?" horiz-adv-x="1064" 
d="M391 0v252h238v-252h-238zM61 987q-1 221 133 349t345 128t327 -116t117 -285q0 -119 -65 -219q-18 -32 -68 -78t-78 -64l-149 -100v-151h-226v229l191 135q2 2 48 34q46 31 74 63q29 32 38.5 64t9.5 83q0 86 -58.5 143.5t-171.5 57.5t-182.5 -73t-69.5 -200h-215z" />
    <glyph glyph-name="at" unicode="@" horiz-adv-x="2039" 
d="M815 496q0 -79 52 -133t126 -54q127 0 215 105v317q-47 61 -94 88t-121 27t-126 -54t-52 -133v-163zM1038 -309q-397 0 -646 249t-249 643q0 393 248 637t632 244t628 -221q245 -217 245 -584q0 -245 -108 -389t-294 -143q-186 0 -259 143q-101 -143 -283 -143
q-145 0 -238 90t-93 246v229q0 156 92.5 246t252.5 90t259 -133l82 113h96v-576q0 -123 115 -123q188 0 188 350q0 289 -192 463t-490 174t-494 -196q-194 -196 -194 -520t194 -521q196 -196 508 -196h52v-172h-52z" />
    <glyph glyph-name="A" unicode="A" horiz-adv-x="1347" 
d="M471 559h393l-194 547zM41 0v82l512 1352h242l512 -1352v-82h-242l-127 354h-541l-129 -354h-227z" />
    <glyph glyph-name="B" unicode="B" horiz-adv-x="1355" 
d="M430 819h318q202 0 202 200t-202 200h-318v-400zM430 215h373q205 0 205 197q0 202 -205 202h-373v-399zM184 0v1434h604q195 0 302.5 -98.5t107.5 -286.5q0 -218 -172 -306q227 -82 227 -346q0 -194 -106.5 -295.5t-302.5 -101.5h-660z" />
    <glyph glyph-name="C" unicode="C" horiz-adv-x="1351" 
d="M143 485v463q0 246 145.5 381t392.5 135t397 -126t151 -369v-21h-246v21q0 133 -88 201t-197 69q-153 0 -231 -71t-78 -203v-496q0 -132 78 -203t209 -71q131 1 219 69t88 201v20h246v-20q-1 -243 -151 -369t-397 -127q-247 0 -392.5 135t-145.5 381z" />
    <glyph glyph-name="D" unicode="D" horiz-adv-x="1402" 
d="M430 215h266q147 0 232.5 75.5t85.5 198.5v455q0 123 -85.5 199t-232.5 76h-266v-1004zM184 0v1434h512q261 0 412.5 -131.5t151.5 -364.5v-442q0 -233 -151.5 -364.5t-412.5 -131.5h-512z" />
    <glyph glyph-name="E" unicode="E" horiz-adv-x="1208" 
d="M184 0v1434h920v-215h-674v-398h578v-205h-578v-401h676v-215h-922z" />
    <glyph glyph-name="F" unicode="F" horiz-adv-x="1198" 
d="M184 0v1434h932v-215h-686v-412h588v-205h-588v-602h-246z" />
    <glyph glyph-name="G" unicode="G" 
d="M143 479v469q0 244 149.5 380t397.5 136t403.5 -125t155.5 -362v-8h-245v8q0 119 -82 190.5t-224 71.5t-225.5 -73.5t-83.5 -200.5v-486q0 -134 80.5 -209t201.5 -75q238 0 333 174v184h-283v205h528v-758h-133l-74 135q-135 -166 -375 -166t-382 134.5t-142 375.5z" />
    <glyph glyph-name="H" unicode="H" horiz-adv-x="1454" 
d="M184 0v1434h246v-609h594v609h246v-1434h-246v610h-594v-610h-246z" />
    <glyph glyph-name="I" unicode="I" horiz-adv-x="614" 
d="M184 0v1434h246v-1434h-246z" />
    <glyph glyph-name="J" unicode="J" horiz-adv-x="1187" 
d="M41 424v61h246v-61q0 -229 245 -229q111 0 178.5 60t67.5 177v1002h246v-1010q0 -231 -136 -343t-364 -112t-355.5 112t-127.5 343z" />
    <glyph glyph-name="K" unicode="K" horiz-adv-x="1284" 
d="M184 0v1434h246v-609h182l375 609h227v-82l-387 -621l416 -649v-82h-242l-389 610h-182v-610h-246z" />
    <glyph glyph-name="L" unicode="L" horiz-adv-x="1157" 
d="M184 0v1434h246v-1219h686v-215h-932z" />
    <glyph glyph-name="M" unicode="M" horiz-adv-x="1658" 
d="M184 0v1434h238l412 -670l411 670h230v-1434h-238v997l-328 -534h-157l-330 534v-997h-238z" />
    <glyph glyph-name="N" unicode="N" horiz-adv-x="1454" 
d="M184 0v1434h226l614 -977v977h246v-1434h-226l-614 977v-977h-246z" />
    <glyph glyph-name="O" unicode="O" 
d="M389 473q0 -125 84 -201.5t234 -76.5t233.5 76.5t83.5 201.5v488q0 125 -83.5 201.5t-233.5 76.5t-234 -76.5t-84 -201.5v-488zM143 485v463q0 241 151.5 378.5t411.5 137.5t412 -137.5t152 -378.5v-463q0 -241 -152 -378.5t-412 -137.5t-411.5 137.5t-151.5 378.5z" />
    <glyph glyph-name="P" unicode="P" horiz-adv-x="1300" 
d="M430 768h332q87 0 141.5 59.5t54.5 165.5t-54.5 166t-141.5 60h-332v-451zM184 0v1434h621q188 0 295.5 -118t107.5 -322t-107.5 -322.5t-295.5 -118.5h-375v-553h-246z" />
    <glyph glyph-name="Q" unicode="Q" 
d="M389 473q0 -125 84 -201.5t234 -76.5t233.5 76.5t83.5 201.5v488q0 125 -83.5 201.5t-233.5 76.5t-234 -76.5t-84 -201.5v-488zM143 485v463q0 241 151.5 378.5t411.5 137.5t412 -137.5t152 -378.5v-463q0 -253 -168 -393l168 -252v-84h-238l-153 232q-87 -19 -172 -19
q-261 0 -412.5 137.5t-151.5 378.5z" />
    <glyph glyph-name="R" unicode="R" horiz-adv-x="1351" 
d="M430 760h326q227 0 227 230t-227 229h-326v-459zM184 0v1434h617q208 0 320 -115.5t112 -325.5q0 -144 -64.5 -252t-187.5 -161l268 -498v-82h-241l-295 551h-283v-551h-246z" />
    <glyph glyph-name="S" unicode="S" horiz-adv-x="1314" 
d="M92 465h246q0 -99 53 -164q93 -106 273 -106q126 0 197 51t71 131t-66 121t-248 110l-18 6l-33 13q-232 88 -336 172q-100 84 -100 261q-1 176 137 290t384 114t387 -121t141 -362h-246q0 129 -79 193.5t-205 64.5t-198.5 -49.5t-72.5 -129.5t62 -119t247 -105l29 -11
q110 -37 182 -69t148 -84q145 -100 145 -286t-143 -301.5t-391 -115.5t-408 127q-158 131 -158 369z" />
    <glyph glyph-name="T" unicode="T" horiz-adv-x="1159" 
d="M41 1219v215h1077v-215h-416v-1219h-245v1219h-416z" />
    <glyph glyph-name="U" unicode="U" 
d="M164 467v967h246v-979q0 -116 79 -188t218 -72t218 72t79 188v979h245v-967q0 -235 -145 -367t-397 -131.5t-398 131.5q-145 133 -145 367z" />
    <glyph glyph-name="V" unicode="V" horiz-adv-x="1349" 
d="M41 1434h235l404 -1106l395 1106h234v-82l-512 -1352h-242l-514 1352v82z" />
    <glyph glyph-name="W" unicode="W" horiz-adv-x="1703" 
d="M82 1434h242l211 -1041l245 672h156l250 -678l207 1047h229v-82l-287 -1352h-229l-254 688l-254 -688h-229l-287 1352v82z" />
    <glyph glyph-name="X" unicode="X" horiz-adv-x="1327" 
d="M61 0v82l449 659l-414 611v82h250l318 -500l331 500h236v-82l-418 -609l453 -661v-82h-250l-359 545l-360 -545h-236z" />
    <glyph glyph-name="Y" unicode="Y" horiz-adv-x="1257" 
d="M20 1434h242l369 -635l381 635h225v-82l-485 -774v-578h-246v567l-486 785v82z" />
    <glyph glyph-name="Z" unicode="Z" horiz-adv-x="1200" 
d="M82 0v213l733 1006h-702v215h985v-211l-736 -1008h756v-215h-1036z" />
    <glyph glyph-name="bracketleft" unicode="[" horiz-adv-x="686" 
d="M184 -328v1897h420v-205h-194v-1487h194v-205h-420z" />
    <glyph glyph-name="backslash" unicode="\" horiz-adv-x="952" 
d="M82 1569h201l587 -1692v-82h-200l-588 1692v82z" />
    <glyph glyph-name="bracketright" unicode="]" horiz-adv-x="686" 
d="M82 -123h194v1487h-194v205h420v-1897h-420v205z" />
    <glyph glyph-name="asciicircum" unicode="^" horiz-adv-x="1075" 
d="M123 793v81l317 570h191l321 -570v-81h-192l-225 397l-220 -397h-192z" />
    <glyph glyph-name="underscore" unicode="_" horiz-adv-x="1140" 
d="M-2 -78h1145v-188h-1145v188z" />
    <glyph glyph-name="grave" unicode="`" horiz-adv-x="612" 
d="M123 1495h203l163 -287h-182l-184 209v78z" />
    <glyph glyph-name="a" unicode="a" horiz-adv-x="1144" 
d="M317 313q0 -133 167 -133t282 121v158h-234q-215 0 -215 -146zM92 300q0 156 111 243.5t329 87.5h234v84q0 170 -201 170q-96 0 -148 -41.5t-52 -110.5h-220q0 165 108.5 261t312.5 96t314.5 -97t110.5 -264v-729h-131l-86 119q-120 -144 -325 -144q-158 0 -257.5 84.5
t-99.5 240.5z" />
    <glyph glyph-name="b" unicode="b" horiz-adv-x="1206" 
d="M647 180q86 0 143.5 56t57.5 147v299q0 91 -56.5 147t-142.5 56q-132 0 -260 -137v-431q128 -137 258 -137zM164 0v1444h225v-483q105 129 289 129t289.5 -102t105.5 -290v-331q1 -189 -107 -291t-270 -101q-197 0 -317 144l-84 -119h-131z" />
    <glyph glyph-name="c" unicode="c" horiz-adv-x="1103" 
d="M117 371v323q0 183 120.5 289.5t322.5 106.5t318.5 -104.5t116.5 -287.5v-12h-225v12q0 86 -55 136.5t-158 50.5t-159 -49.5t-56 -137.5v-331q0 -88 56 -137.5t159 -49.5t158 50.5t55 136.5v18h225v-14q0 -180 -120 -288t-319 -108t-319 106.5t-120 289.5z" />
    <glyph glyph-name="d" unicode="d" horiz-adv-x="1206" 
d="M358 383q0 -91 57.5 -147t143.5 -56q130 0 258 137v431q-128 137 -260 137q-86 0 -142.5 -56t-56.5 -147v-299zM133 367v331q0 188 105.5 290t289.5 102t289 -129v483h225v-1444h-131l-84 119q-120 -144 -317 -144q-163 0 -270 101t-107 291z" />
    <glyph glyph-name="e" unicode="e" horiz-adv-x="1126" 
d="M342 631h442v67q0 87 -58 137t-163 50t-163 -50t-58 -137v-67zM117 367v327q0 180 125 288t328 108t321.5 -105t118.5 -287v-239h-668v-88q0 -88 60 -139.5t169 -51.5q181 0 211 142h226q-17 -163 -131.5 -255t-314.5 -92t-322.5 105t-122.5 287z" />
    <glyph glyph-name="f" unicode="f" horiz-adv-x="706" 
d="M31 868v197h164q0 180 96.5 281.5t298.5 101.5q22 0 76 -4v-197h-48q-106 0 -152 -42.5t-46 -139.5h231v-197h-231v-868h-225v868h-164z" />
    <glyph glyph-name="g" unicode="g" horiz-adv-x="1206" 
d="M358 487q0 -91 58 -144.5t151 -53.5q132 0 250 133v330q-118 133 -250 133q-93 0 -151 -54t-58 -145v-199zM133 475v223q0 190 107 291t270 101q197 0 317 -144l84 119h131v-1006q0 -200 -117 -305.5t-321 -105.5t-324 94.5t-120 257.5h225q0 -61 57 -104t160 -43
q215 0 215 200v160q-105 -129 -289 -129t-289.5 102t-105.5 289z" />
    <glyph glyph-name="h" unicode="h" horiz-adv-x="1216" 
d="M164 0v1444h225v-483q117 129 291 129t279 -108q104 -108 104 -296v-686h-225v666q0 106 -53 162.5t-142 56.5q-141 0 -254 -137v-748h-225z" />
    <glyph glyph-name="i" unicode="i" horiz-adv-x="552" 
d="M164 1219v225h225v-225h-225zM164 0v1065h225v-1065h-225z" />
    <glyph glyph-name="j" unicode="j" horiz-adv-x="555" 
d="M166 1219v225h225v-225h-225zM-27 -152h47q146 0 146 183v1034h225v-1034q0 -228 -113.5 -305.5t-230.5 -77.5q-24 0 -74 4v196z" />
    <glyph glyph-name="k" unicode="k" horiz-adv-x="1110" 
d="M164 0v1444h225v-801h141l281 422h186v-107l-266 -401l297 -451v-106h-203l-297 446h-139v-446h-225z" />
    <glyph glyph-name="l" unicode="l" horiz-adv-x="552" 
d="M164 0v1444h225v-1444h-225z" />
    <glyph glyph-name="m" unicode="m" horiz-adv-x="1804" 
d="M164 0v1065h131l84 -119q123 144 303 144q207 0 289 -166q132 166 340 166q161 0 250.5 -99.5t89.5 -279.5v-711h-226v686q0 96 -46.5 147.5t-123.5 51.5q-128 0 -235 -137v-748h-225v686q0 96 -46.5 147.5t-123.5 51.5q-132 0 -236 -137v-748h-225z" />
    <glyph glyph-name="n" unicode="n" horiz-adv-x="1216" 
d="M164 0v1065h131l84 -119q119 144 301 144t282.5 -108t100.5 -296v-686h-225v666q0 106 -53 162.5t-142 56.5q-141 0 -254 -137v-748h-225z" />
    <glyph glyph-name="o" unicode="o" horiz-adv-x="1142" 
d="M342 381q0 -90 60.5 -145.5t168.5 -55.5t169 55.5t61 145.5v303q0 90 -61 145.5t-169 55.5t-168.5 -55.5t-60.5 -145.5v-303zM117 371v323q0 178 119.5 287t334.5 109t335 -109t120 -287v-323q0 -178 -120 -287t-335 -109t-334.5 109t-119.5 287z" />
    <glyph glyph-name="p" unicode="p" horiz-adv-x="1206" 
d="M647 180q86 0 143.5 56t57.5 147v299q0 91 -56.5 147t-142.5 56q-132 0 -260 -137v-431q128 -137 258 -137zM164 -328v1393h131l84 -119q120 144 317 144q162 0 270 -102t107 -290v-331q0 -188 -105.5 -290t-289.5 -102t-289 129v-432h-225z" />
    <glyph glyph-name="q" unicode="q" horiz-adv-x="1206" 
d="M358 383q0 -91 57.5 -147t143.5 -56q130 0 258 137v431q-128 137 -260 137q-86 0 -142.5 -56t-56.5 -147v-299zM133 367v331q0 190 107 291t270 101q197 0 317 -144l84 119h131v-1393h-225v432q-105 -129 -289 -129t-289.5 102t-105.5 290z" />
    <glyph glyph-name="r" unicode="r" horiz-adv-x="757" 
d="M164 0v1065h112l86 -119q126 144 293 144h41v-216h-30q-178 0 -277 -114v-760h-225z" />
    <glyph glyph-name="s" unicode="s" horiz-adv-x="1132" 
d="M102 367h226q0 -87 70.5 -137t175.5 -50t157.5 31.5t52.5 85.5q0 81 -116 111l-277 71q-125 33 -190.5 99t-65.5 184q0 149 113.5 238.5t311.5 89.5t314.5 -99.5t116.5 -281.5h-225q0 84 -60 130t-156 46t-143 -31t-47 -82q0 -72 117 -102l275 -68q258 -64 258 -287
q0 -150 -121 -245t-329 -95t-333 104t-125 288z" />
    <glyph glyph-name="t" unicode="t" horiz-adv-x="776" 
d="M41 868v197h164v221h225v-221h254v-197h-254v-489q0 -182 145 -182h109v-197h-109q-370 0 -370 381v487h-164z" />
    <glyph glyph-name="u" unicode="u" horiz-adv-x="1210" 
d="M154 379v686h225v-666q0 -106 52.5 -162.5t139.5 -56.5q137 0 250 137v748h226v-1065h-132l-86 119q-121 -144 -299 -144t-277 107.5t-99 296.5z" />
    <glyph glyph-name="v" unicode="v" horiz-adv-x="1044" 
d="M41 1065h209l280 -758l269 758h205v-107l-379 -958h-205l-379 958v107z" />
    <glyph glyph-name="w" unicode="w" horiz-adv-x="1470" 
d="M92 1065h205l170 -758l192 565h154l193 -565l170 758h202v-107l-233 -958h-213l-195 520l-196 -520h-217l-232 958v107z" />
    <glyph glyph-name="x" unicode="x" horiz-adv-x="1075" 
d="M82 0v106l313 426l-309 426v107h203l248 -360l249 360h191v-107l-303 -417l319 -435v-106h-200l-261 379l-258 -379h-192z" />
    <glyph glyph-name="y" unicode="y" horiz-adv-x="1046" 
d="M41 1065h209l280 -758l269 758h207v-107l-508 -1286h-185v82l107 246l-379 958v107z" />
    <glyph glyph-name="z" unicode="z" horiz-adv-x="1081" 
d="M102 0v197l562 671h-543v197h813v-197l-565 -671h589v-197h-856z" />
    <glyph glyph-name="braceleft" unicode="{" horiz-adv-x="692" 
d="M61 530v205h54q116 0 116 162v279q0 185 100.5 289t278.5 104v-205q-70 0 -111.5 -49.5t-41.5 -126.5v-350q0 -147 -125 -205q125 -58 125 -205v-375q0 -77 41.5 -126.5t111.5 -49.5v-205q-177 0 -278 104t-101 290v303q0 161 -116 161h-54z" />
    <glyph glyph-name="bar" unicode="|" horiz-adv-x="593" 
d="M184 -205v1774h226v-1774h-226z" />
    <glyph glyph-name="braceright" unicode="}" horiz-adv-x="692" 
d="M82 -123q71 0 112.5 49.5t41.5 126.5v375q0 147 124 205q-124 58 -124 205v350q0 77 -41.5 126.5t-112.5 49.5v205q178 0 278.5 -104t100.5 -289v-279q0 -162 117 -162h53v-205h-53q-117 0 -117 -161v-303q0 -186 -101 -290t-278 -104v205z" />
    <glyph glyph-name="asciitilde" unicode="~" horiz-adv-x="1005" 
d="M334 803q88 0 162 -51l36 -25q70 -49 106 -49t63.5 24.5t68.5 90.5l154 -93q-120 -225 -252 -225q-77 0 -135 37l-45 27q-26 13 -62 37t-66 24t-58.5 -24.5t-69.5 -90.5l-154 93q117 225 252 225z" />
    <glyph glyph-name="exclamdown" unicode="&#xa1;" horiz-adv-x="606" 
d="M190 -328v955h226v-955h-226zM184 813v252h238v-252h-238z" />
    <glyph glyph-name="cent" unicode="&#xa2;" horiz-adv-x="1116" 
d="M342 543q0 -141 141 -176v684q-141 -37 -141 -177v-331zM117 547v323q0 159 96.5 263t263.5 127v174h164v-172q171 -19 269 -121.5t98 -266.5v-12h-226v12q0 68 -39.5 117t-107.5 62v-691q147 34 147 181v18h226v-14q0 -160 -100 -265.5t-267 -125.5v-156h-164v158
q-168 23 -264 126.5t-96 262.5z" />
    <glyph glyph-name="sterling" unicode="&#xa3;" horiz-adv-x="1185" 
d="M82 0v205h143v416h-143v204h143v244q0 183 120 289t324 106t319.5 -108t115.5 -303v-74h-225v74q0 98 -54.5 152.5t-158.5 54.5t-159.5 -49.5t-55.5 -137.5v-248h294v-204h-294v-416h653v-205h-1022z" />
    <glyph glyph-name="yen" unicode="&#xa5;" horiz-adv-x="1187" 
d="M20 1434h207l369 -646l369 646h202v-82l-342 -574h234v-196h-352v-168h352v-197h-352v-217h-226v217h-352v197h352v168h-352v196h233l-342 574v82z" />
    <glyph glyph-name="section" unicode="&#xa7;" horiz-adv-x="1198" 
d="M360 596q0 -131 234 -213l184 -66q80 100 80 189q0 129 -233 211l-185 67q-80 -100 -80 -188zM102 57h217q3 -164 121 -189.5t170 -23.5q109 0 168.5 40t59.5 104t-45.5 95t-176.5 77l-94 33q-203 71 -294 155t-91 226t137 292q-71 57 -99 110.5t-28 141.5
q0 148 120.5 239t332.5 91t338.5 -100t126.5 -299h-215q0 104 -82 153t-188 49t-162 -38.5t-56 -92.5q0 -86 93 -127q33 -16 139 -53l96 -33q203 -70 294 -154.5t91 -227.5t-137 -292q72 -56 99.5 -109t27.5 -140q-1 -146 -127 -241t-342 -95t-355 106t-139 303z" />
    <glyph glyph-name="dieresis" unicode="&#xa8;" horiz-adv-x="874" 
d="M526 1219v225h226v-225h-226zM123 1219v225h225v-225h-225z" />
    <glyph glyph-name="copyright" unicode="&#xa9;" horiz-adv-x="1761" 
d="M524 618v199q0 158 93.5 245t255.5 87t255 -82.5t93 -235.5v-6h-179v6q0 75 -47.5 117.5t-113.5 42.5q-179 0 -179 -162v-221q0 -79 46 -121.5t123 -42.5t124 43t47 119v4h179v-4q0 -154 -93 -236.5t-255 -82.5t-255.5 86.5t-93.5 244.5zM881 1311q-244 0 -409 -171
q-165 -170 -165 -422t164 -425q167 -170 410 -170t408 171q165 172 165 424t-166 421q-163 172 -407 172zM143.5 717.5q-0.5 314.5 211.5 530.5q211 216 525 216t526 -216t212 -530.5t-212 -531.5t-526 -217q-312 0 -524 217t-212.5 531.5z" />
    <glyph glyph-name="ordfeminine" unicode="&#xaa;" horiz-adv-x="897" 
d="M424 1020q-109 0 -109 -68q-1 -68 85 -67q86 0 143 63v72h-119zM102 932q0 217 320 217h121v45q-1 82 -97 82t-96 -90h-213q0 120 78.5 189t228.5 69t230 -64t80 -176v-471h-123l-49 66q-82 -76 -208 -76t-199 54.5t-73 154.5z" />
    <glyph glyph-name="guillemotleft" unicode="&#xab;" horiz-adv-x="1116" 
d="M993 993v-65l-243 -365l243 -366v-66h-194l-287 432l287 430h194zM563 993v-65l-244 -365l244 -366v-66h-194l-287 432l287 430h194z" />
    <glyph glyph-name="logicalnot" unicode="&#xac;" horiz-adv-x="1146" 
d="M123 768v188h901v-553h-203v365h-698z" />
    <glyph glyph-name="registered" unicode="&#xae;" horiz-adv-x="847" 
d="M362 1124h80q56 0 56 52q0 47 -56 47h-80v-99zM287 934v360h155q61 0 96 -29.5t35 -80.5q0 -84 -84 -115l84 -108v-27h-71l-90 123h-50v-123h-75zM424 1386q-108 0 -184 -78t-76 -196t76 -197q77 -77 184 -77t184 77q76 79 76 197t-76 196t-184 78zM82 1111
q0 149 100 251t242 102t242 -101t100 -252t-98 -251t-244 -100q-144 0 -244 100q-98 101 -98 251z" />
    <glyph glyph-name="macron" unicode="&#xaf;" horiz-adv-x="874" 
d="M123 1239v184h629v-184h-629z" />
    <glyph glyph-name="degree" unicode="&#xb0;" horiz-adv-x="798" 
d="M281 1008q0 -52 32 -85.5t86 -33.5t86.5 33.5t32.5 85.5v176q0 52 -32.5 85.5t-86.5 33.5t-86 -33.5t-32 -85.5v-176zM82 1038v115q0 149 83.5 230t233.5 81t234 -81.5t84 -229.5v-115q0 -148 -84 -229.5t-234 -81.5t-233.5 81t-83.5 230z" />
    <glyph glyph-name="plusminus" unicode="&#xb1;" horiz-adv-x="1146" 
d="M123 682v188h348v330h205v-330h348v-188h-348v-330h-205v330h-348zM123 0v188h901v-188h-901z" />
    <glyph glyph-name="acute" unicode="&#xb4;" horiz-adv-x="612" 
d="M489 1495v-78l-184 -209h-182l164 287h202z" />
    <glyph glyph-name="uni00B5" unicode="&#xb5;" horiz-adv-x="1220" 
d="M164 -328v1393h225v-639q0 -97 64 -170q66 -72 142 -72t107.5 20.5t38.5 24.5t14.5 10t11.5 9t11.5 10.5t13 12t18 21t21.5 25.5v748h226v-1065h-131l-86 119q-52 -59 -74 -79t-76.5 -42.5t-112.5 -22.5t-108.5 28.5t-79.5 66.5v-398h-225z" />
    <glyph glyph-name="paragraph" unicode="&#xb6;" horiz-adv-x="1269" 
d="M82 1085v17q0 159 95 245.5t263 86.5h645v-1612h-215v1407h-215v-1407h-215v932q-168 0 -263 87t-95 244z" />
    <glyph glyph-name="periodcentered" unicode="&#xb7;" horiz-adv-x="563" 
d="M143 504v278h277v-278h-277z" />
    <glyph glyph-name="cedilla" unicode="&#xb8;" horiz-adv-x="612" 
d="M135 -328v78l178 250h183l-158 -328h-203z" />
    <glyph glyph-name="ordmasculine" unicode="&#xba;" horiz-adv-x="839" 
d="M293 1032q0 -56 35.5 -92.5t91.5 -36.5t91.5 36.5t35.5 92.5v103q0 56 -35.5 92.5t-91.5 36.5t-91.5 -36.5t-35.5 -92.5v-103zM82 1055v57q0 159 89 245.5t249 86.5t249 -86t89 -246v-57q0 -160 -89 -246t-249 -86t-249 86.5t-89 245.5z" />
    <glyph glyph-name="guillemotright" unicode="&#xbb;" horiz-adv-x="1116" 
d="M553 131v66l244 366l-244 365v65h195l286 -430l-286 -432h-195zM123 131v66l244 366l-244 365v65h194l287 -430l-287 -432h-194z" />
    <glyph glyph-name="questiondown" unicode="&#xbf;" horiz-adv-x="1064" 
d="M416 813v252h237v-252h-237zM61 37q0 118 64 213q48 83 219 190l78 49v138h225v-217l-172 -105q-102 -63 -145 -117t-43 -142t58 -140.5t172 -52.5t182.5 68t68.5 192h215q0 -223 -133 -344t-346 -121t-328 112t-115 277z" />
    <glyph glyph-name="Agrave" unicode="&#xc0;" horiz-adv-x="1347" 
d="M471 559h393l-194 547zM375 1870h217l176 -309h-195l-198 225v84zM41 0v82l512 1352h242l512 -1352v-82h-242l-127 354h-541l-129 -354h-227z" />
    <glyph glyph-name="Aacute" unicode="&#xc1;" horiz-adv-x="1347" 
d="M985 1870v-84l-197 -225h-196l176 309h217zM471 559h393l-194 547zM41 0v82l512 1352h242l512 -1352v-82h-242l-127 354h-541l-129 -354h-227z" />
    <glyph glyph-name="Acircumflex" unicode="&#xc2;" horiz-adv-x="1347" 
d="M471 559h393l-194 547zM358 1561v77l217 232h195l217 -232v-77h-184l-131 147l-133 -147h-181zM41 0v82l512 1352h242l512 -1352v-82h-242l-127 354h-541l-129 -354h-227z" />
    <glyph glyph-name="Atilde" unicode="&#xc3;" horiz-adv-x="1347" 
d="M471 559h393l-194 547zM522 1837q76 0 152 -49l33 -23q61 -43 103 -43t110 105l137 -84q-103 -207 -228 -207q-76 0 -135 39l-37 22q-88 52 -118 52q-44 0 -109 -103l-137 84q106 207 229 207zM41 0v82l512 1352h242l512 -1352v-82h-242l-127 354h-541l-129 -354h-227z
" />
    <glyph glyph-name="Adieresis" unicode="&#xc4;" horiz-adv-x="1347" 
d="M768 1573v242h240v-242h-240zM471 559h393l-194 547zM334 1573v242h241v-242h-241zM41 0v82l512 1352h242l512 -1352v-82h-242l-127 354h-541l-129 -354h-227z" />
    <glyph glyph-name="Aring" unicode="&#xc5;" horiz-adv-x="1347" 
d="M670 1825q-38 0 -66.5 -26.5t-28.5 -63.5q-3 -55 46 -78t97.5 0t45.5 78q0 37 -28 63.5t-66 26.5zM471 559h393l-194 547zM432 1734q0 92 71 157t166 65t167 -66t71 -156q1 -92 -71 -158t-167 -65q-95 0 -166 65q-71 66 -71 158zM41 0v82l512 1352h242l512 -1352v-82
h-242l-127 354h-541l-129 -354h-227z" />
    <glyph glyph-name="AE" unicode="&#xc6;" horiz-adv-x="2031" 
d="M1008 559v655l-414 -655h414zM20 0v82l852 1352h1055v-215h-674v-398h578v-205h-578v-401h676v-215h-921v354h-543l-223 -354h-222z" />
    <glyph glyph-name="Ccedilla" unicode="&#xc7;" horiz-adv-x="1351" 
d="M143 485v463q0 246 145.5 381t392.5 135t397 -126t151 -369v-21h-246v21q0 133 -88 201t-197 69q-153 0 -231 -71t-78 -203v-496q0 -132 78 -203t209 -71q131 1 219 69t88 201v20h246v-20q-1 -227 -131 -351t-332 -143l-143 -299h-203v78l162 227q-213 29 -326 160
t-113 348z" />
    <glyph glyph-name="Egrave" unicode="&#xc8;" horiz-adv-x="1208" 
d="M395 1870h217l176 -309h-194l-199 225v84zM184 0v1434h920v-215h-674v-398h578v-205h-578v-401h676v-215h-922z" />
    <glyph glyph-name="Eacute" unicode="&#xc9;" horiz-adv-x="1208" 
d="M879 1870v-84l-197 -225h-197l177 309h217zM184 0v1434h920v-215h-674v-398h578v-205h-578v-401h676v-215h-922z" />
    <glyph glyph-name="Ecircumflex" unicode="&#xca;" horiz-adv-x="1208" 
d="M334 1561v77l217 232h194l218 -232v-77h-185l-131 147l-133 -147h-180zM184 0v1434h920v-215h-674v-398h578v-205h-578v-401h676v-215h-922z" />
    <glyph glyph-name="Edieresis" unicode="&#xcb;" horiz-adv-x="1208" 
d="M739 1573v242h242v-242h-242zM307 1573v242h242v-242h-242zM184 0v1434h920v-215h-674v-398h578v-205h-578v-401h676v-215h-922z" />
    <glyph glyph-name="Igrave" unicode="&#xcc;" horiz-adv-x="614" 
d="M184 0v1434h246v-1434h-246zM25 1870h217l176 -309h-195l-198 225v84z" />
    <glyph glyph-name="Iacute" unicode="&#xcd;" horiz-adv-x="614" 
d="M608 1870v-84l-196 -225h-197l176 309h217zM184 0v1434h246v-1434h-246z" />
    <glyph glyph-name="Icircumflex" unicode="&#xce;" horiz-adv-x="614" 
d="M184 0v1434h246v-1434h-246zM-6 1561v77l217 232h195l217 -232v-77h-185l-131 147l-133 -147h-180z" />
    <glyph glyph-name="Idieresis" unicode="&#xcf;" horiz-adv-x="614" 
d="M406 1573v242h239v-242h-239zM184 0v1434h246v-1434h-246zM-29 1573v242h242v-242h-242z" />
    <glyph glyph-name="Eth" unicode="&#xd0;" horiz-adv-x="1452" 
d="M479 215h266q147 0 232.5 75.5t85.5 198.5v455q0 123 -85.5 199t-232.5 76h-266v-398h289v-205h-289v-401zM41 616v205h192v613h512q261 0 412.5 -131.5t151.5 -364.5v-442q0 -233 -151.5 -364.5t-412.5 -131.5h-512v616h-192z" />
    <glyph glyph-name="Ntilde" unicode="&#xd1;" horiz-adv-x="1454" 
d="M580 1837q75 0 151 -49l33 -23q62 -43 104 -43t109 105l137 -84q-103 -207 -227 -207q-76 0 -135 39l-37 22q-88 52 -119 52q-44 0 -109 -103l-137 84q106 207 230 207zM184 0v1434h226l614 -977v977h246v-1434h-226l-614 977v-977h-246z" />
    <glyph glyph-name="Ograve" unicode="&#xd2;" 
d="M432 1870h217l176 -309h-194l-199 225v84zM389 473q0 -125 84 -201.5t234 -76.5t233.5 76.5t83.5 201.5v488q0 125 -83.5 201.5t-233.5 76.5t-234 -76.5t-84 -201.5v-488zM143 485v463q0 241 151.5 378.5t411.5 137.5t412 -137.5t152 -378.5v-463q0 -241 -152 -378.5
t-412 -137.5t-411.5 137.5t-151.5 378.5z" />
    <glyph glyph-name="Oacute" unicode="&#xd3;" 
d="M1001 1870v-84l-196 -225h-197l176 309h217zM389 473q0 -125 84 -201.5t234 -76.5t233.5 76.5t83.5 201.5v488q0 125 -83.5 201.5t-233.5 76.5t-234 -76.5t-84 -201.5v-488zM143 485v463q0 241 151.5 378.5t411.5 137.5t412 -137.5t152 -378.5v-463q0 -241 -152 -378.5
t-412 -137.5t-411.5 137.5t-151.5 378.5z" />
    <glyph glyph-name="Ocircumflex" unicode="&#xd4;" 
d="M395 1561v77l217 232h195l217 -232v-77h-184l-131 147l-134 -147h-180zM389 473q0 -125 84 -201.5t234 -76.5t233.5 76.5t83.5 201.5v488q0 125 -83.5 201.5t-233.5 76.5t-234 -76.5t-84 -201.5v-488zM143 485v463q0 241 151.5 378.5t411.5 137.5t412 -137.5t152 -378.5
v-463q0 -241 -152 -378.5t-412 -137.5t-411.5 137.5t-151.5 378.5z" />
    <glyph glyph-name="Otilde" unicode="&#xd5;" 
d="M389 473q0 -125 84 -201.5t234 -76.5t233.5 76.5t83.5 201.5v488q0 125 -83.5 201.5t-233.5 76.5t-234 -76.5t-84 -201.5v-488zM567 1837q76 0 152 -49l33 -23q62 -43 104 -43t109 105l137 -84q-103 -207 -228 -207q-76 0 -135 39l-37 22q-88 52 -118 52q-44 0 -109 -103
l-137 84q106 207 229 207zM143 485v463q0 241 151.5 378.5t411.5 137.5t412 -137.5t152 -378.5v-463q0 -241 -152 -378.5t-412 -137.5t-411.5 137.5t-151.5 378.5z" />
    <glyph glyph-name="Odieresis" unicode="&#xd6;" 
d="M805 1573v242h239v-242h-239zM389 473q0 -125 84 -201.5t234 -76.5t233.5 76.5t83.5 201.5v488q0 125 -83.5 201.5t-233.5 76.5t-234 -76.5t-84 -201.5v-488zM371 1573v242h241v-242h-241zM143 485v463q0 241 151.5 378.5t411.5 137.5t412 -137.5t152 -378.5v-463
q0 -241 -152 -378.5t-412 -137.5t-411.5 137.5t-151.5 378.5z" />
    <glyph glyph-name="Oslash" unicode="&#xd8;" 
d="M707 195q150 0 233.5 76.5t83.5 201.5v488q0 113 -74 190l-315 -950q35 -6 72 -6zM389 473q0 -119 78 -197l319 955q-44 8 -79 8q-150 0 -234 -76.5t-84 -201.5v-488zM143 485v463q0 241 151.5 378.5t412.5 137.5q77 0 147 -12l61 186h181v-82l-58 -172
q232 -136 232 -436v-463q0 -241 -151.5 -378.5t-411.5 -137.5q-70 0 -140 13l-63 -187h-180v82l57 168q-238 133 -238 440z" />
    <glyph glyph-name="Ugrave" unicode="&#xd9;" 
d="M453 1870h217l176 -309h-195l-198 225v84zM164 467v967h246v-979q0 -116 79 -188t218 -72t218 72t79 188v979h245v-967q0 -235 -145 -367t-397 -131.5t-398 131.5q-145 133 -145 367z" />
    <glyph glyph-name="Uacute" unicode="&#xda;" 
d="M975 1870v-84l-197 -225h-196l176 309h217zM164 467v967h246v-979q0 -116 79 -188t218 -72t218 72t79 188v979h245v-967q0 -235 -145 -367t-397 -131.5t-398 131.5q-145 133 -145 367z" />
    <glyph glyph-name="Ucircumflex" unicode="&#xdb;" 
d="M393 1561v77l217 232h195l217 -232v-77h-184l-131 147l-134 -147h-180zM164 467v967h246v-979q0 -116 79 -188t218 -72t218 72t79 188v979h245v-967q0 -235 -145 -367t-397 -131.5t-398 131.5q-145 133 -145 367z" />
    <glyph glyph-name="Udieresis" unicode="&#xdc;" 
d="M805 1573v242h239v-242h-239zM371 1573v242h241v-242h-241zM164 467v967h246v-979q0 -116 79 -188t218 -72t218 72t79 188v979h245v-967q0 -235 -145 -367t-397 -131.5t-398 131.5q-145 133 -145 367z" />
    <glyph glyph-name="Yacute" unicode="&#xdd;" horiz-adv-x="1257" 
d="M903 1870v-84l-196 -225h-197l176 309h217zM20 1434h242l369 -635l381 635h225v-82l-485 -774v-578h-246v567l-486 785v82z" />
    <glyph glyph-name="Thorn" unicode="&#xde;" horiz-adv-x="1300" 
d="M430 498h332q87 0 141.5 59.5t54.5 165.5t-54.5 165.5t-141.5 59.5h-332v-450zM184 0v1434h246v-271h375q188 0 295.5 -118.5t107.5 -321.5t-107.5 -321.5t-295.5 -118.5h-375v-283h-246z" />
    <glyph glyph-name="germandbls" unicode="&#xdf;" horiz-adv-x="1226" 
d="M164 0v952q0 235 119 365.5t328 130.5t325 -106t117 -261q0 -213 -154 -290q99 -36 162 -134t63 -223q0 -200 -126.5 -317t-340.5 -117q-57 0 -129 10v201q58 -6 113 -6q123 0 190.5 67.5t67.5 179.5t-67 174t-189 62h-96v193h78q192 0 192 184q0 80 -51.5 129t-155.5 49
t-162.5 -69t-58.5 -199v-975h-225z" />
    <glyph glyph-name="agrave" unicode="&#xe0;" horiz-adv-x="1144" 
d="M350 1495h203l164 -287h-182l-185 209v78zM317 313q0 -133 167 -133t282 121v158h-234q-215 0 -215 -146zM92 300q0 156 111 243.5t329 87.5h234v84q0 170 -201 170q-96 0 -148 -41.5t-52 -110.5h-220q0 165 108.5 261t312.5 96t314.5 -97t110.5 -264v-729h-131l-86 119
q-120 -144 -325 -144q-158 0 -257.5 84.5t-99.5 240.5z" />
    <glyph glyph-name="aacute" unicode="&#xe1;" horiz-adv-x="1144" 
d="M815 1495v-78l-184 -209h-182l163 287h203zM317 313q0 -133 167 -133t282 121v158h-234q-215 0 -215 -146zM92 300q0 156 111 243.5t329 87.5h234v84q0 170 -201 170q-96 0 -148 -41.5t-52 -110.5h-220q0 165 108.5 261t312.5 96t314.5 -97t110.5 -264v-729h-131l-86 119
q-120 -144 -325 -144q-158 0 -257.5 84.5t-99.5 240.5z" />
    <glyph glyph-name="acircumflex" unicode="&#xe2;" horiz-adv-x="1144" 
d="M317 313q0 -133 167 -133t282 121v158h-234q-215 0 -215 -146zM268 1208v72l203 215h180l203 -215v-72h-172l-123 138l-123 -138h-168zM92 300q0 156 111 243.5t329 87.5h234v84q0 170 -201 170q-96 0 -148 -41.5t-52 -110.5h-220q0 165 108.5 261t312.5 96t314.5 -97
t110.5 -264v-729h-131l-86 119q-120 -144 -325 -144q-158 0 -257.5 84.5t-99.5 240.5z" />
    <glyph glyph-name="atilde" unicode="&#xe3;" horiz-adv-x="1144" 
d="M317 313q0 -133 167 -133t282 121v158h-234q-215 0 -215 -146zM446 1499q77 0 148 -47l33 -22q59 -41 101 -41t106 100l135 -82q-106 -201 -224 -201q-72 0 -131 39l-34 21q-5 3 -32 17.5t-39 24.5t-50 9q-38 0 -101 -100l-135 81q106 201 223 201zM92 300
q0 156 111 243.5t329 87.5h234v84q0 170 -201 170q-96 0 -148 -41.5t-52 -110.5h-220q0 165 108.5 261t312.5 96t314.5 -97t110.5 -264v-729h-131l-86 119q-120 -144 -325 -144q-158 0 -257.5 84.5t-99.5 240.5z" />
    <glyph glyph-name="adieresis" unicode="&#xe4;" horiz-adv-x="1144" 
d="M651 1219v225h226v-225h-226zM317 313q0 -133 167 -133t282 121v158h-234q-215 0 -215 -146zM248 1219v225h225v-225h-225zM92 300q0 156 111 243.5t329 87.5h234v84q0 170 -201 170q-96 0 -148 -41.5t-52 -110.5h-220q0 165 108.5 261t312.5 96t314.5 -97t110.5 -264
v-729h-131l-86 119q-120 -144 -325 -144q-158 0 -257.5 84.5t-99.5 240.5z" />
    <glyph glyph-name="aring" unicode="&#xe5;" horiz-adv-x="1144" 
d="M483 1389.5q-13 -41.5 23 -79.5t84.5 -21.5t62 58t-22.5 79.5t-85 21.5t-62 -58zM567.5 1160.5q-89.5 -0.5 -155.5 61.5t-66 146t66 146q66 60 155 60t155 -60t66 -146t-65 -147q-66 -60 -155.5 -60.5zM317 313q0 -133 167 -133t282 121v158h-234q-215 0 -215 -146z
M92 300q0 156 111 243.5t329 87.5h234v84q0 170 -201 170q-96 0 -148 -41.5t-52 -110.5h-220q0 165 108.5 261t312.5 96t314.5 -97t110.5 -264v-729h-131l-86 119q-120 -144 -325 -144q-158 0 -257.5 84.5t-99.5 240.5z" />
    <glyph glyph-name="ae" unicode="&#xe6;" horiz-adv-x="1775" 
d="M991 631h443v67q0 87 -58.5 137t-163.5 50t-163 -50t-58 -137v-67zM317 313q0 -133 167 -133t282 121v158h-234q-215 0 -215 -146zM92 300q0 156 111 243.5t329 87.5h234v84q0 170 -201 170q-96 0 -148 -41.5t-52 -110.5h-220q0 165 108.5 261t314.5 96t323 -107
q122 107 327 107t323 -105t118 -287v-239h-668v-88q0 -88 60.5 -139.5t169.5 -51.5q181 0 211 142h225q-17 -163 -131.5 -255t-304.5 -92q-295 0 -406 191q-138 -191 -366 -191q-159 0 -258 84.5t-99 240.5z" />
    <glyph glyph-name="ccedilla" unicode="&#xe7;" horiz-adv-x="1103" 
d="M117 371v323q0 183 120.5 289.5t322.5 106.5t318.5 -104.5t116.5 -287.5v-12h-225v12q0 86 -55 136.5t-158 50.5t-159 -49.5t-56 -137.5v-331q0 -88 56 -137.5t159 -49.5t158 50.5t55 136.5v18h225v-14q0 -161 -98.5 -266.5t-263.5 -124.5l-148 -308h-202v78l166 236
q-156 26 -244 128t-88 257z" />
    <glyph glyph-name="egrave" unicode="&#xe8;" horiz-adv-x="1126" 
d="M356 1495h203l164 -287h-182l-185 209v78zM342 631h442v67q0 87 -58 137t-163 50t-163 -50t-58 -137v-67zM117 367v327q0 180 125 288t328 108t321.5 -105t118.5 -287v-239h-668v-88q0 -88 60 -139.5t169 -51.5q181 0 211 142h226q-17 -163 -131.5 -255t-314.5 -92
t-322.5 105t-122.5 287z" />
    <glyph glyph-name="eacute" unicode="&#xe9;" horiz-adv-x="1126" 
d="M786 1495v-78l-184 -209h-182l164 287h202zM342 631h442v67q0 87 -58 137t-163 50t-163 -50t-58 -137v-67zM117 367v327q0 180 125 288t328 108t321.5 -105t118.5 -287v-239h-668v-88q0 -88 60 -139.5t169 -51.5q181 0 211 142h226q-17 -163 -131.5 -255t-314.5 -92
t-322.5 105t-122.5 287z" />
    <glyph glyph-name="ecircumflex" unicode="&#xea;" horiz-adv-x="1126" 
d="M342 631h442v67q0 87 -58 137t-163 50t-163 -50t-58 -137v-67zM276 1208v72l203 215h180l203 -215v-72h-172l-123 138l-123 -138h-168zM117 367v327q0 180 125 288t328 108t321.5 -105t118.5 -287v-239h-668v-88q0 -88 60 -139.5t169 -51.5q181 0 211 142h226
q-17 -163 -131.5 -255t-314.5 -92t-322.5 105t-122.5 287z" />
    <glyph glyph-name="edieresis" unicode="&#xeb;" horiz-adv-x="1126" 
d="M657 1219v225h226v-225h-226zM342 631h442v67q0 87 -58 137t-163 50t-163 -50t-58 -137v-67zM254 1219v225h225v-225h-225zM117 367v327q0 180 125 288t328 108t321.5 -105t118.5 -287v-239h-668v-88q0 -88 60 -139.5t169 -51.5q181 0 211 142h226q-17 -163 -131.5 -255
t-314.5 -92t-322.5 105t-122.5 287z" />
    <glyph glyph-name="igrave" unicode="&#xec;" horiz-adv-x="552" 
d="M164 0v1065h225v-1065h-225zM6 1491h203l164 -287h-183l-184 209v78z" />
    <glyph glyph-name="iacute" unicode="&#xed;" horiz-adv-x="552" 
d="M551 1495v-78l-184 -209h-183l164 287h203zM164 0v1065h225v-1065h-225z" />
    <glyph glyph-name="icircumflex" unicode="&#xee;" horiz-adv-x="552" 
d="M164 0v1065h225v-1065h-225zM-16 1208v72l202 215h181l202 -215v-72h-172l-123 138l-122 -138h-168z" />
    <glyph glyph-name="idieresis" unicode="&#xef;" horiz-adv-x="552" 
d="M367 1219v225h225v-225h-225zM164 0v1065h225v-1065h-225zM-37 1219v225h225v-225h-225z" />
    <glyph glyph-name="eth" unicode="&#xf0;" horiz-adv-x="1142" 
d="M342 381q0 -90 60.5 -145.5t168.5 -55.5t169 55.5t61 145.5v266q-107 125 -242 125q-98 0 -157.5 -55t-59.5 -148v-188zM117 371v215q0 187 105 289t280 102q130 0 174.5 -33t75.5 -57l-160 196h-305v134h196l-96 120v107h203l176 -227h229v-134h-129q92 -133 126 -235
t34 -264v-217q0 -182 -122.5 -287t-330.5 -105t-333 107q-123 108 -123 289z" />
    <glyph glyph-name="ntilde" unicode="&#xf1;" horiz-adv-x="1216" 
d="M492 1499q76 0 147 -47l33 -22q60 -41 102 -41t105 100l135 -82q-106 -201 -223 -201q-73 0 -132 39l-34 21q-5 3 -32 17.5t-39 24.5t-50 9q-38 0 -101 -100l-135 81q106 201 224 201zM164 0v1065h131l84 -119q119 144 301 144t282.5 -108t100.5 -296v-686h-225v666
q0 106 -53 162.5t-142 56.5q-141 0 -254 -137v-748h-225z" />
    <glyph glyph-name="ograve" unicode="&#xf2;" horiz-adv-x="1142" 
d="M342 381q0 -90 60.5 -145.5t168.5 -55.5t169 55.5t61 145.5v303q0 90 -61 145.5t-169 55.5t-168.5 -55.5t-60.5 -145.5v-303zM326 1495h202l164 -287h-182l-184 209v78zM117 371v323q0 178 119.5 287t334.5 109t335 -109t120 -287v-323q0 -178 -120 -287t-335 -109
t-334.5 109t-119.5 287z" />
    <glyph glyph-name="oacute" unicode="&#xf3;" horiz-adv-x="1142" 
d="M811 1495v-78l-184 -209h-183l164 287h203zM342 381q0 -90 60.5 -145.5t168.5 -55.5t169 55.5t61 145.5v303q0 90 -61 145.5t-169 55.5t-168.5 -55.5t-60.5 -145.5v-303zM117 371v323q0 178 119.5 287t334.5 109t335 -109t120 -287v-323q0 -178 -120 -287t-335 -109
t-334.5 109t-119.5 287z" />
    <glyph glyph-name="ocircumflex" unicode="&#xf4;" horiz-adv-x="1142" 
d="M342 381q0 -90 60.5 -145.5t168.5 -55.5t169 55.5t61 145.5v303q0 90 -61 145.5t-169 55.5t-168.5 -55.5t-60.5 -145.5v-303zM279 1208v72l202 215h181l202 -215v-72h-172l-123 138l-123 -138h-167zM117 371v323q0 178 119.5 287t334.5 109t335 -109t120 -287v-323
q0 -178 -120 -287t-335 -109t-334.5 109t-119.5 287z" />
    <glyph glyph-name="otilde" unicode="&#xf5;" horiz-adv-x="1142" 
d="M342 381q0 -90 60.5 -145.5t168.5 -55.5t169 55.5t61 145.5v303q0 90 -61 145.5t-169 55.5t-168.5 -55.5t-60.5 -145.5v-303zM422 1499q76 0 147 -47l33 -22q60 -41 102 -41t105 100l135 -82q-106 -201 -223 -201q-72 0 -131 39l-35 21q-5 3 -31.5 17.5t-38.5 24.5t-50 9
q-38 0 -101 -100l-135 81q106 201 223 201zM117 371v323q0 178 119.5 287t334.5 109t335 -109t120 -287v-323q0 -178 -120 -287t-335 -109t-334.5 109t-119.5 287z" />
    <glyph glyph-name="odieresis" unicode="&#xf6;" horiz-adv-x="1142" 
d="M659 1219v225h226v-225h-226zM342 381q0 -90 60.5 -145.5t168.5 -55.5t169 55.5t61 145.5v303q0 90 -61 145.5t-169 55.5t-168.5 -55.5t-60.5 -145.5v-303zM256 1219v225h225v-225h-225zM117 371v323q0 178 119.5 287t334.5 109t335 -109t120 -287v-323q0 -178 -120 -287
t-335 -109t-334.5 109t-119.5 287z" />
    <glyph glyph-name="divide" unicode="&#xf7;" horiz-adv-x="1146" 
d="M442 879v254h260v-254h-260zM442 150v253h260v-253h-260zM123 547v188h901v-188h-901z" />
    <glyph glyph-name="oslash" unicode="&#xf8;" horiz-adv-x="1155" 
d="M578 180q108 0 168.5 55.5t60.5 145.5v303q0 41 -19 84l-286 -580q27 -8 76 -8zM348 381q0 -36 17 -82l284 578q-36 8 -71 8q-108 0 -169 -55.5t-61 -145.5v-303zM123 371v323q0 178 120 287t335 109q69 0 149 -17l125 250h180v-106l-119 -238q119 -107 119 -285v-323
q0 -178 -119.5 -287t-334.5 -109q-72 0 -152 17l-123 -250h-180v106l117 238q-117 108 -117 285z" />
    <glyph glyph-name="ugrave" unicode="&#xf9;" horiz-adv-x="1210" 
d="M391 1495h203l164 -287h-183l-184 209v78zM154 379v686h225v-666q0 -106 52.5 -162.5t139.5 -56.5q137 0 250 137v748h226v-1065h-132l-86 119q-121 -144 -299 -144t-277 107.5t-99 296.5z" />
    <glyph glyph-name="uacute" unicode="&#xfa;" horiz-adv-x="1210" 
d="M813 1495v-78l-184 -209h-183l164 287h203zM154 379v686h225v-666q0 -106 52.5 -162.5t139.5 -56.5q137 0 250 137v748h226v-1065h-132l-86 119q-121 -144 -299 -144t-277 107.5t-99 296.5z" />
    <glyph glyph-name="ucircumflex" unicode="&#xfb;" horiz-adv-x="1210" 
d="M311 1208v72l203 215h180l203 -215v-72h-172l-123 138l-123 -138h-168zM154 379v686h225v-666q0 -106 52.5 -162.5t139.5 -56.5q137 0 250 137v748h226v-1065h-132l-86 119q-121 -144 -299 -144t-277 107.5t-99 296.5z" />
    <glyph glyph-name="udieresis" unicode="&#xfc;" horiz-adv-x="1210" 
d="M694 1219v225h226v-225h-226zM291 1219v225h225v-225h-225zM154 379v686h225v-666q0 -106 52.5 -162.5t139.5 -56.5q137 0 250 137v748h226v-1065h-132l-86 119q-121 -144 -299 -144t-277 107.5t-99 296.5z" />
    <glyph glyph-name="yacute" unicode="&#xfd;" horiz-adv-x="1046" 
d="M770 1495v-78l-184 -209h-183l164 287h203zM41 1065h209l280 -758l269 758h207v-107l-508 -1286h-185v82l107 246l-379 958v107z" />
    <glyph glyph-name="thorn" unicode="&#xfe;" horiz-adv-x="1206" 
d="M647 180q86 0 143.5 56t57.5 147v299q0 91 -56.5 147t-142.5 56q-132 0 -260 -137v-431q128 -137 258 -137zM164 -328v1772h225v-483q105 129 289 129t289.5 -102t105.5 -290v-331q0 -188 -105.5 -290t-289.5 -102t-289 129v-432h-225z" />
    <glyph glyph-name="ydieresis" unicode="&#xff;" horiz-adv-x="1046" 
d="M612 1219v225h226v-225h-226zM209 1219v225h225v-225h-225zM41 1065h209l280 -758l269 758h207v-107l-508 -1286h-185v82l107 246l-379 958v107z" />
    <glyph glyph-name="dotlessi" unicode="&#x131;" horiz-adv-x="552" 
d="M164 0v1065h225v-1065h-225z" />
    <glyph glyph-name="OE" unicode="&#x152;" horiz-adv-x="2048" 
d="M389 473q0 -125 84.5 -201.5t232.5 -76.5t233 74t85 192v500q0 125 -83.5 201.5t-233.5 76.5t-234 -76.5t-84 -201.5v-488zM143 485v463q0 241 151.5 378.5t412.5 137.5q176 0 317 -108v78h920v-215h-674v-398h577v-205h-577v-401h676v-215h-922v76q-143 -107 -317 -107
q-261 0 -412.5 137.5t-151.5 378.5z" />
    <glyph glyph-name="oe" unicode="&#x153;" horiz-adv-x="1810" 
d="M1026 631h442v67q0 87 -58 137t-163 50t-163 -50t-58 -137v-67zM342 381q0 -90 60.5 -145.5t168.5 -55.5t169 55.5t61 145.5v303q0 90 -61 145.5t-169 55.5t-168.5 -55.5t-60.5 -145.5v-303zM117 371v323q0 176 118 286q119 110 337 110t341 -117q126 117 335 117
t327.5 -105t118.5 -287v-239h-668v-97q0 -83 61 -132.5t168 -49.5q181 0 211 142h226q-17 -163 -131.5 -255t-320.5 -92t-329 113q-123 -113 -339 -113t-335.5 109t-119.5 287z" />
    <glyph glyph-name="Ydieresis" unicode="&#x178;" horiz-adv-x="1257" 
d="M727 1579v242h242v-242h-242zM295 1579v242h242v-242h-242zM20 1434h242l369 -635l381 635h225v-82l-485 -774v-578h-246v567l-486 785v82z" />
    <glyph glyph-name="florin" unicode="&#x192;" horiz-adv-x="761" 
d="M-41 -152h10q103 0 147 41t52 142l65 837h-147v197h164q23 205 111.5 294t283.5 89q14 0 76 -4v-197h-47q-98 0 -142.5 -38t-56.5 -144h246v-197h-262l-66 -837q-15 -179 -94 -281t-262 -102q-42 0 -78 4v196z" />
    <glyph glyph-name="circumflex" unicode="&#x2c6;" horiz-adv-x="831" 
d="M123 1208v72l203 215h180l203 -215v-72h-172l-123 138l-123 -138h-168z" />
    <glyph glyph-name="caron" unicode="&#x2c7;" horiz-adv-x="831" 
d="M123 1495h172l123 -158l123 158h168v-72l-203 -215h-180l-203 215v72z" />
    <glyph glyph-name="breve" unicode="&#x2d8;" horiz-adv-x="831" 
d="M86 1450v25h193v-23q0 -56 35 -87.5t102 -31.5q139 0 139 119v23h190v-25q0 -130 -89.5 -205.5t-239.5 -75.5t-240 75.5t-90 205.5z" />
    <glyph glyph-name="dotaccent" unicode="&#x2d9;" horiz-adv-x="471" 
d="M123 1219v225h225v-225h-225z" />
    <glyph glyph-name="ring" unicode="&#x2da;" horiz-adv-x="688" 
d="M259.5 1389.5q-13.5 -41.5 22.5 -79.5t85 -21.5t62 58t-23 79.5t-84.5 21.5t-62 -58zM123 1368q-1 86 65 146t156 60t156 -60t65 -146q0 -86 -65 -147q-66 -60 -156 -60t-156 60q-65 61 -65 147z" />
    <glyph glyph-name="ogonek" unicode="&#x2db;" horiz-adv-x="575" 
d="M102 -170q0 76 105 170h131q-86 -71 -86 -125q0 -65 106 -65h70v-138h-115q-98 0 -154.5 41t-56.5 117z" />
    <glyph glyph-name="tilde" unicode="&#x2dc;" horiz-adv-x="991" 
d="M346 1499q77 0 148 -47l32 -22q60 -41 102 -41t105 100l135 -82q-106 -201 -223 -201q-72 0 -131 39l-35 21q-5 3 -31.5 17.5t-38.5 24.5t-50 9q-38 0 -101 -100l-135 81q106 201 223 201z" />
    <glyph glyph-name="hungarumlaut" unicode="&#x2dd;" horiz-adv-x="968" 
d="M846 1495v-78l-184 -209h-183l164 287h203zM489 1495v-78l-184 -209h-182l164 287h202z" />
    <glyph glyph-name="Omega" unicode="&#x3a9;" horiz-adv-x="1478" 
d="M143 0v215h199q-93 59 -129.5 142.5t-36.5 211.5v379q0 241 152 378.5t412 137.5t411.5 -137.5t151.5 -378.5v-379q0 -128 -36.5 -211.5t-129.5 -142.5h198v-215h-487v225q101 25 155 120t54 220v396q0 125 -84 201.5t-234 76.5t-233.5 -76.5t-83.5 -201.5v-396
q0 -125 54 -220t155 -120v-225h-488z" />
    <glyph glyph-name="pi" unicode="&#x3c0;" horiz-adv-x="1421" 
d="M61 868v197h1299v-197h-205v-868h-225v868h-438v-868h-226v868h-205z" />
    <glyph glyph-name="afii10023" unicode="&#x401;" horiz-adv-x="1208" 
d="M739 1573v242h240v-242h-240zM305 1573v242h242v-242h-242zM184 0v1434h920v-215h-674v-398h578v-205h-578v-401h676v-215h-922z" />
    <glyph glyph-name="afii10051" unicode="&#x402;" horiz-adv-x="1531" 
d="M41 1219v215h1077v-215h-475v-357q137 25 272 25q250 0 387.5 -119.5t137.5 -325.5t-112 -324t-314 -118h-135v215h102q103 0 156 58.5t53 164.5t-78 165t-198 59t-271 -23v-639h-246v1219h-356z" />
    <glyph glyph-name="afii10052" unicode="&#x403;" horiz-adv-x="1157" 
d="M879 1870v-84l-197 -225h-197l177 309h217zM184 0v1434h891v-215h-645v-1219h-246z" />
    <glyph glyph-name="afii10053" unicode="&#x404;" horiz-adv-x="1353" 
d="M143 485v463q0 244 149.5 380t418.5 136q215 0 367 -127t153 -368h-227q0 122 -88 196t-224 74q-137 0 -220 -72t-83 -202v-146h498v-205h-498v-145q0 -130 83 -202t216 -72q132 1 224 71t92 199h227q0 -232 -147 -364q-146 -132 -394 -132t-397.5 136t-149.5 380z" />
    <glyph glyph-name="afii10054" unicode="&#x405;" horiz-adv-x="1314" 
d="M92 465h246q0 -99 53 -164q93 -106 273 -106q126 0 197 51t71 131t-66 121t-248 110l-18 6l-33 13q-232 88 -336 172q-100 84 -100 261q-1 176 137 290t384 114t387 -121t141 -362h-246q0 129 -79 193.5t-205 64.5t-198.5 -49.5t-72.5 -129.5t62 -119t247 -105l29 -11
q110 -37 182 -69t148 -84q145 -100 145 -286t-143 -301.5t-391 -115.5t-408 127q-158 131 -158 369z" />
    <glyph glyph-name="afii10055" unicode="&#x406;" horiz-adv-x="614" 
d="M184 0v1434h246v-1434h-246z" />
    <glyph glyph-name="afii10056" unicode="&#x407;" horiz-adv-x="614" 
d="M406 1573v242h239v-242h-239zM184 0v1434h246v-1434h-246zM-29 1573v242h242v-242h-242z" />
    <glyph glyph-name="afii10057" unicode="&#x408;" horiz-adv-x="1187" 
d="M41 424v61h246v-61q0 -229 245 -229q111 0 178.5 60t67.5 177v1002h246v-1010q0 -231 -136 -343t-364 -112t-355.5 112t-127.5 343z" />
    <glyph glyph-name="afii10058" unicode="&#x409;" horiz-adv-x="2070" 
d="M1200 215h342q90 0 138.5 59.5t48.5 165.5t-48.5 166t-138.5 60h-342v-451zM37 0v225h39q130 0 180 111q49 113 49 403v695h895v-553h346q207 0 319.5 -118t112.5 -323t-112.5 -322.5t-319.5 -117.5h-592v1219h-424v-551q0 -668 -446 -668h-47z" />
    <glyph glyph-name="afii10059" unicode="&#x40a;" horiz-adv-x="2140" 
d="M1270 215h342q90 0 138 59.5t48 165.5t-48 166t-138 60h-342v-451zM184 0v1434h246v-553h594v553h246v-553h346q207 0 319.5 -118t112.5 -323t-112.5 -322.5t-319.5 -117.5h-592v666h-594v-666h-246z" />
    <glyph glyph-name="afii10060" unicode="&#x40b;" horiz-adv-x="1558" 
d="M41 1219v215h1077v-215h-475v-357q131 25 266 25q527 0 527 -430v-457h-246v428q0 234 -299 234q-126 0 -248 -25v-637h-246v1219h-356z" />
    <glyph glyph-name="afii10061" unicode="&#x40c;" horiz-adv-x="1284" 
d="M942 1870v-84l-197 -225h-196l176 309h217zM184 0v1434h246v-609h182l375 609h227v-82l-387 -621l416 -649v-82h-242l-389 610h-182v-610h-246z" />
    <glyph glyph-name="afii10062" unicode="&#x40e;" horiz-adv-x="1185" 
d="M266 1794v25h193v-23q0 -56 35 -87.5t102 -31.5q139 0 139 119v23h191v-25q0 -129 -89.5 -201.5t-240.5 -72.5t-240.5 72.5t-89.5 201.5zM20 1434h244l352 -738l320 738h229v-82l-606 -1352h-223v82l153 338l-469 932v82z" />
    <glyph glyph-name="afii10145" unicode="&#x40f;" horiz-adv-x="1441" 
d="M184 0v1434h246v-1219h582v1219h245v-1434h-423v-287h-226v287h-424z" />
    <glyph glyph-name="afii10017" unicode="&#x410;" horiz-adv-x="1347" 
d="M471 559h393l-194 547zM41 0v82l512 1352h242l512 -1352v-82h-242l-127 354h-541l-129 -354h-227z" />
    <glyph glyph-name="afii10018" unicode="&#x411;" horiz-adv-x="1355" 
d="M430 215h377q87 0 142 59.5t55 165.5t-55 166t-142 60h-377v-451zM184 0v1434h983v-215h-737v-338h420q188 0 295.5 -118.5t107.5 -322.5t-107.5 -322t-295.5 -118h-666z" />
    <glyph glyph-name="afii10019" unicode="&#x412;" horiz-adv-x="1355" 
d="M430 819h318q202 0 202 200t-202 200h-318v-400zM430 215h373q205 0 205 197q0 202 -205 202h-373v-399zM184 0v1434h604q195 0 302.5 -98.5t107.5 -286.5q0 -218 -172 -306q227 -82 227 -346q0 -194 -106.5 -295.5t-302.5 -101.5h-660z" />
    <glyph glyph-name="afii10020" unicode="&#x413;" horiz-adv-x="1157" 
d="M184 0v1434h891v-215h-645v-1219h-246z" />
    <glyph glyph-name="afii10021" unicode="&#x414;" horiz-adv-x="1447" 
d="M963 215v1004h-412v-418q0 -277 -64 -455q-21 -58 -61 -131h537zM51 215h111q80 105 122 229t42 357v633h882v-1219h168v-502h-225v287h-875v-287h-225v502z" />
    <glyph glyph-name="afii10022" unicode="&#x415;" horiz-adv-x="1208" 
d="M184 0v1434h920v-215h-674v-398h578v-205h-578v-401h676v-215h-922z" />
    <glyph glyph-name="afii10024" unicode="&#x416;" horiz-adv-x="1898" 
d="M63 0v82l355 647l-326 623v82h225l320 -609h190v609h246v-609h191l319 609h225v-82l-325 -623l354 -647v-82h-248l-319 610h-197v-610h-246v610h-196l-320 -610h-248z" />
    <glyph glyph-name="afii10025" unicode="&#x417;" horiz-adv-x="1277" 
d="M102 465h246q0 -131 88 -200.5t223 -69.5q269 0 269 217q0 99 -67 152.5t-189 53.5h-191v205h191q105 0 164 52t59 148t-65.5 156t-183.5 60t-190.5 -69t-72.5 -201h-246q-1 243 143 369t372 126t359.5 -114t131.5 -313t-195 -308q107 -38 167.5 -118.5t60.5 -198.5
q0 -204 -138 -323.5t-380 -119.5q-242 1 -400 127q-156 126 -156 369z" />
    <glyph glyph-name="afii10026" unicode="&#x418;" horiz-adv-x="1462" 
d="M184 0v1434h246v-994l623 994h225v-1434h-246v993l-622 -993h-226z" />
    <glyph glyph-name="afii10027" unicode="&#x419;" horiz-adv-x="1462" 
d="M401 1794v25h193v-23q0 -56 35 -87.5t102 -31.5q139 0 139 119v23h191v-25q0 -129 -89.5 -201.5t-240.5 -72.5t-240.5 72.5t-89.5 201.5zM184 0v1434h246v-994l623 994h225v-1434h-246v993l-622 -993h-226z" />
    <glyph glyph-name="afii10028" unicode="&#x41a;" horiz-adv-x="1284" 
d="M184 0v1434h246v-609h182l375 609h227v-82l-387 -621l416 -649v-82h-242l-389 610h-182v-610h-246z" />
    <glyph glyph-name="afii10029" unicode="&#x41b;" horiz-adv-x="1368" 
d="M20 0v225h39q131 0 181 111q49 113 49 403v695h895v-1434h-246v1219h-424v-551q0 -668 -446 -668h-48z" />
    <glyph glyph-name="afii10030" unicode="&#x41c;" horiz-adv-x="1658" 
d="M184 0v1434h238l412 -670l411 670h230v-1434h-238v997l-328 -534h-157l-330 534v-997h-238z" />
    <glyph glyph-name="afii10031" unicode="&#x41d;" horiz-adv-x="1454" 
d="M184 0v1434h246v-609h594v609h246v-1434h-246v610h-594v-610h-246z" />
    <glyph glyph-name="afii10032" unicode="&#x41e;" 
d="M389 473q0 -125 84 -201.5t234 -76.5t233.5 76.5t83.5 201.5v488q0 125 -83.5 201.5t-233.5 76.5t-234 -76.5t-84 -201.5v-488zM143 485v463q0 241 151.5 378.5t411.5 137.5t412 -137.5t152 -378.5v-463q0 -241 -152 -378.5t-412 -137.5t-411.5 137.5t-151.5 378.5z" />
    <glyph glyph-name="afii10033" unicode="&#x41f;" horiz-adv-x="1441" 
d="M184 0v1434h1073v-1434h-245v1219h-582v-1219h-246z" />
    <glyph glyph-name="afii10034" unicode="&#x420;" horiz-adv-x="1300" 
d="M430 768h332q87 0 141.5 59.5t54.5 165.5t-54.5 166t-141.5 60h-332v-451zM184 0v1434h621q188 0 295.5 -118t107.5 -322t-107.5 -322.5t-295.5 -118.5h-375v-553h-246z" />
    <glyph glyph-name="afii10035" unicode="&#x421;" horiz-adv-x="1351" 
d="M143 485v463q0 246 145.5 381t392.5 135t397 -126t151 -369v-21h-246v21q0 133 -88 201t-197 69q-153 0 -231 -71t-78 -203v-496q0 -132 78 -203t209 -71q131 1 219 69t88 201v20h246v-20q-1 -243 -151 -369t-397 -127q-247 0 -392.5 135t-145.5 381z" />
    <glyph glyph-name="afii10036" unicode="&#x422;" horiz-adv-x="1159" 
d="M41 1219v215h1077v-215h-416v-1219h-245v1219h-416z" />
    <glyph glyph-name="afii10037" unicode="&#x423;" horiz-adv-x="1185" 
d="M20 1434h244l352 -738l320 738h229v-82l-606 -1352h-223v82l153 338l-469 932v82z" />
    <glyph glyph-name="afii10038" unicode="&#x424;" horiz-adv-x="1773" 
d="M1010 379h102q139 0 226 82t87 207v139q0 125 -87 207t-226 82h-102v-717zM348 668q0 -125 87.5 -207t226.5 -82h102v717h-102q-139 0 -226.5 -82t-87.5 -207v-139zM102 664v147q0 235 166 367t404 133h92v164h246v-164h92q238 -1 404 -133t165 -367v-147
q1 -236 -165 -368t-404 -132h-92v-189h-246v189h-92q-238 0 -404 132t-166 368z" />
    <glyph glyph-name="afii10039" unicode="&#x425;" horiz-adv-x="1327" 
d="M61 0v82l449 659l-414 611v82h250l318 -500l331 500h236v-82l-418 -609l453 -661v-82h-250l-359 545l-360 -545h-236z" />
    <glyph glyph-name="afii10040" unicode="&#x426;" horiz-adv-x="1484" 
d="M184 0v1434h246v-1219h569v1219h246v-1219h168v-502h-225v287h-1004z" />
    <glyph glyph-name="afii10041" unicode="&#x427;" horiz-adv-x="1345" 
d="M123 950v484h246v-455q0 -234 299 -234q131 0 247 29v660h246v-1434h-246v549q-142 -29 -266 -29q-526 0 -526 430z" />
    <glyph glyph-name="afii10042" unicode="&#x428;" horiz-adv-x="2035" 
d="M184 0v1434h246v-1219h465v1219h246v-1219h465v1219h245v-1434h-1667z" />
    <glyph glyph-name="afii10043" unicode="&#x429;" horiz-adv-x="2091" 
d="M184 0v1434h246v-1219h465v1219h246v-1219h465v1219h245v-1219h168v-502h-225v287h-1610z" />
    <glyph glyph-name="afii10044" unicode="&#x42a;" horiz-adv-x="1464" 
d="M594 215h332q87 0 141.5 59.5t54.5 165.5t-54.5 166t-141.5 60h-332v-451zM20 1219v215h574v-553h375q188 0 295.5 -118.5t107.5 -322.5t-107.5 -322t-295.5 -118h-621v1219h-328z" />
    <glyph glyph-name="afii10045" unicode="&#x42b;" horiz-adv-x="1818" 
d="M1389 0v1434h245v-1434h-245zM430 215h332q87 0 141.5 59.5t54.5 165.5t-54.5 166t-141.5 60h-332v-451zM184 0v1434h246v-553h375q188 0 295.5 -118.5t107.5 -322.5t-107.5 -322t-295.5 -118h-621z" />
    <glyph glyph-name="afii10046" unicode="&#x42c;" horiz-adv-x="1300" 
d="M430 215h332q87 0 141.5 59.5t54.5 165.5t-54.5 166t-141.5 60h-332v-451zM184 0v1434h246v-553h375q188 0 295.5 -118.5t107.5 -322.5t-107.5 -322t-295.5 -118h-621z" />
    <glyph glyph-name="afii10047" unicode="&#x42d;" horiz-adv-x="1353" 
d="M123 465h227q0 -130 91 -200t225 -70t216.5 72t82.5 202v145h-498v205h498v146q0 130 -83 202t-220 72q-136 0 -224 -74t-88 -196h-227q0 241 151 368q154 127 369 127q269 0 418 -136t149 -380v-463q0 -244 -149 -380t-397 -136q-248 -1 -394 131t-147 365z" />
    <glyph glyph-name="afii10048" unicode="&#x42e;" horiz-adv-x="1929" 
d="M946 455q0 -116 79 -188t218 -72t218 72t79 188v524q0 116 -79 188t-218 72t-218 -72t-79 -188v-524zM184 0v1434h246v-611h270v144q0 230 146 364q148 133 398 133t396 -133t146 -364v-500q0 -234 -146 -366t-396 -132q-252 1 -398 133t-146 365v141h-270v-608h-246z
" />
    <glyph glyph-name="afii10049" unicode="&#x42f;" horiz-adv-x="1323" 
d="M596 1219q-231 0 -231 -239t231 -239h297v478h-297zM86 0v82l285 475q-120 45 -188 157t-68 269q0 215 112 333t320 118h592v-1434h-246v532h-270l-312 -532h-225z" />
    <glyph glyph-name="afii10065" unicode="&#x430;" horiz-adv-x="1144" 
d="M317 313q0 -133 167 -133t282 121v158h-234q-215 0 -215 -146zM92 300q0 156 111 243.5t329 87.5h234v84q0 170 -201 170q-96 0 -148 -41.5t-52 -110.5h-220q0 165 108.5 261t312.5 96t314.5 -97t110.5 -264v-729h-131l-86 119q-120 -144 -325 -144q-158 0 -257.5 84.5
t-99.5 240.5z" />
    <glyph glyph-name="afii10066" unicode="&#x431;" horiz-adv-x="1159" 
d="M358 381q0 -90 61 -145.5t169 -55.5t168.5 55.5t60.5 145.5v162q0 93 -59.5 147.5t-157.5 54.5q-136 0 -242 -124v-240zM133 367v376q0 223 72.5 349.5t234.5 173.5l254 75q78 24 78 93v10h225v-10q0 -140 -58 -197t-206 -98l-196 -56q-106 -30 -151.5 -89.5
t-45.5 -176.5v-33q120 166 306 166t291 -102t105 -289v-188q0 -183 -123 -289t-332 -107q-209 0 -331.5 105t-122.5 287z" />
    <glyph glyph-name="afii10067" unicode="&#x432;" horiz-adv-x="1159" 
d="M389 621h252q64 0 95.5 33t31.5 91q0 123 -127 123h-252v-247zM389 197h295q129 0 129 126t-129 126h-295v-252zM164 0v1065h485q357 0 357 -283q0 -159 -119 -235q166 -65 166 -235t-95 -241t-288 -71h-506z" />
    <glyph glyph-name="afii10068" unicode="&#x433;" horiz-adv-x="960" 
d="M164 0v1065h715v-197h-490v-868h-225z" />
    <glyph glyph-name="afii10069" unicode="&#x434;" horiz-adv-x="1304" 
d="M850 197v671h-367v-299q0 -214 -82 -372h449zM57 197h99q114 108 114 407v461h805v-868h158v-455h-221v258h-733v-258h-222v455z" />
    <glyph glyph-name="afii10070" unicode="&#x435;" horiz-adv-x="1126" 
d="M342 631h442v67q0 87 -58 137t-163 50t-163 -50t-58 -137v-67zM117 367v327q0 180 125 288t328 108t321.5 -105t118.5 -287v-239h-668v-88q0 -88 60 -139.5t169 -51.5q181 0 211 142h226q-17 -163 -131.5 -255t-314.5 -92t-322.5 105t-122.5 287z" />
    <glyph glyph-name="afii10072" unicode="&#x436;" horiz-adv-x="1617" 
d="M82 0v106l283 439l-265 413v107h183l274 -434h139v434h226v-434h139l274 434h183v-107l-265 -413l283 -439v-106h-199l-270 434h-145v-434h-226v434h-145l-270 -434h-199z" />
    <glyph glyph-name="afii10073" unicode="&#x437;" horiz-adv-x="1114" 
d="M106 371v14h220v-18q0 -87 61 -137t165 -50t157 38t53 98t-40 96.5t-108 36.5h-159v180h157q59 0 93 35.5t34 93.5t-49 92.5t-145 34.5t-148.5 -49.5t-52.5 -137.5v-12h-219v12q0 185 115.5 288.5t314.5 103.5t311.5 -86t112.5 -234t-131 -221q153 -61 153 -229
t-114 -256.5t-323 -88.5t-333.5 106.5t-124.5 289.5z" />
    <glyph glyph-name="afii10074" unicode="&#x438;" horiz-adv-x="1249" 
d="M164 0v1065h225v-717l471 717h225v-1065h-225v717l-471 -717h-225z" />
    <glyph glyph-name="afii10075" unicode="&#x439;" horiz-adv-x="1249" 
d="M295 1450v25h192v-23q0 -56 35.5 -87.5t102.5 -31.5q139 0 139 119v23h190v-25q0 -130 -89.5 -205.5t-239.5 -75.5t-240 75.5t-90 205.5zM164 0v1065h225v-717l471 717h225v-1065h-225v717l-471 -717h-225z" />
    <glyph glyph-name="afii10076" unicode="&#x43a;" horiz-adv-x="1126" 
d="M164 0v1065h225v-434h141l310 434h186v-107l-295 -413l313 -439v-106h-202l-314 434h-139v-434h-225z" />
    <glyph glyph-name="afii10077" unicode="&#x43b;" horiz-adv-x="1226" 
d="M61 0v205h23q95 0 137.5 64t42.5 200v596h799v-1065h-225v868h-361v-397q0 -226 -98.5 -348.5t-261.5 -122.5h-56z" />
    <glyph glyph-name="afii10078" unicode="&#x43c;" horiz-adv-x="1421" 
d="M164 0v1065h225l326 -490l317 490h225v-1065h-225v717l-268 -412h-107l-268 412v-717h-225z" />
    <glyph glyph-name="afii10079" unicode="&#x43d;" horiz-adv-x="1226" 
d="M164 0v1065h225v-434h449v434h225v-1065h-225v434h-449v-434h-225z" />
    <glyph glyph-name="afii10080" unicode="&#x43e;" horiz-adv-x="1142" 
d="M342 381q0 -90 60.5 -145.5t168.5 -55.5t169 55.5t61 145.5v303q0 90 -61 145.5t-169 55.5t-168.5 -55.5t-60.5 -145.5v-303zM117 371v323q0 178 119.5 287t334.5 109t335 -109t120 -287v-323q0 -178 -120 -287t-335 -109t-334.5 109t-119.5 287z" />
    <glyph glyph-name="afii10081" unicode="&#x43f;" horiz-adv-x="1216" 
d="M164 0v1065h889v-1065h-226v868h-438v-868h-225z" />
    <glyph glyph-name="afii10082" unicode="&#x440;" horiz-adv-x="1206" 
d="M647 180q86 0 143.5 56t57.5 147v299q0 91 -56.5 147t-142.5 56q-132 0 -260 -137v-431q128 -137 258 -137zM164 -328v1393h131l84 -119q120 144 317 144q162 0 270 -102t107 -290v-331q0 -188 -105.5 -290t-289.5 -102t-289 129v-432h-225z" />
    <glyph glyph-name="afii10083" unicode="&#x441;" horiz-adv-x="1103" 
d="M117 371v323q0 183 120.5 289.5t322.5 106.5t318.5 -104.5t116.5 -287.5v-12h-225v12q0 86 -55 136.5t-158 50.5t-159 -49.5t-56 -137.5v-331q0 -88 56 -137.5t159 -49.5t158 50.5t55 136.5v18h225v-14q0 -180 -120 -288t-319 -108t-319 106.5t-120 289.5z" />
    <glyph glyph-name="afii10084" unicode="&#x442;" horiz-adv-x="999" 
d="M41 868v197h917v-197h-346v-868h-225v868h-346z" />
    <glyph glyph-name="afii10085" unicode="&#x443;" horiz-adv-x="1046" 
d="M41 1065h209l280 -758l269 758h207v-107l-508 -1286h-185v82l107 246l-379 958v107z" />
    <glyph glyph-name="afii10086" unicode="&#x444;" horiz-adv-x="1654" 
d="M1113 180q88 0 135.5 51t47.5 131v340q0 80 -47.5 131.5t-135.5 51.5t-173 -82v-541q85 -82 173 -82zM358 362q0 -80 48 -131t136 -51t173 82v541q-85 82 -173 82t-136 -51.5t-48 -131.5v-340zM133 332v401q0 165 89.5 261t239.5 96t253 -115v469h225v-469
q104 115 254 115t239 -96t89 -261v-401q0 -165 -89 -261t-239 -96t-254 115v-418h-225v418q-103 -115 -253 -115t-239.5 96t-89.5 261z" />
    <glyph glyph-name="afii10087" unicode="&#x445;" horiz-adv-x="1075" 
d="M82 0v106l313 426l-309 426v107h203l248 -360l249 360h191v-107l-303 -417l319 -435v-106h-200l-261 379l-258 -379h-192z" />
    <glyph glyph-name="afii10088" unicode="&#x446;" horiz-adv-x="1271" 
d="M164 0v1065h225v-868h428v868h225v-868h158v-455h-221v258h-815z" />
    <glyph glyph-name="afii10089" unicode="&#x447;" horiz-adv-x="1155" 
d="M102 702v363h226v-340q0 -168 237 -168q95 0 201 25v483h225v-1065h-225v381q-132 -29 -238 -29q-205 0 -315.5 87.5t-110.5 262.5z" />
    <glyph glyph-name="afii10090" unicode="&#x448;" horiz-adv-x="1650" 
d="M164 0v1065h225v-868h324v868h225v-868h324v868h225v-1065h-1323z" />
    <glyph glyph-name="afii10091" unicode="&#x449;" horiz-adv-x="1716" 
d="M164 0v1065h225v-868h324v868h225v-868h324v868h225v-868h158v-455h-222v258h-1259z" />
    <glyph glyph-name="afii10092" unicode="&#x44a;" horiz-adv-x="1210" 
d="M510 197h270q63 0 103.5 43.5t40.5 119.5t-40 120t-102 44h-272v-327zM0 868v197h510v-344h287q168 0 260 -96.5t92 -264.5t-92 -264t-260 -96h-512v868h-285z" />
    <glyph glyph-name="afii10093" unicode="&#x44b;" horiz-adv-x="1533" 
d="M1145 0v1065h225v-1065h-225zM389 197h250q63 0 103 43.5t40 119.5t-39.5 120t-101.5 44h-252v-327zM164 0v1065h225v-344h266q168 0 260.5 -96.5t92.5 -264.5t-92.5 -264t-260.5 -96h-491z" />
    <glyph glyph-name="afii10094" unicode="&#x44c;" horiz-adv-x="1089" 
d="M389 197h270q63 0 103.5 43.5t40.5 119.5t-39.5 120t-101.5 44h-273v-327zM164 0v1065h225v-344h287q168 0 260 -96.5t92 -264.5t-92 -264t-260 -96h-512z" />
    <glyph glyph-name="afii10095" unicode="&#x44d;" horiz-adv-x="1118" 
d="M109 371v14h225v-18q0 -87 57 -137t162 -50t164 50.5t59 136.5v73h-321v181h321v77q0 87 -58 137t-163 50t-163 -50.5t-58 -136.5v-12h-225v12q0 182 120.5 287t324.5 105t325.5 -108t121.5 -288v-323q0 -180 -122 -288t-325 -108t-324 108t-121 288z" />
    <glyph glyph-name="afii10096" unicode="&#x44e;" horiz-adv-x="1595" 
d="M815 373q0 -87 58 -140t161 -53t161 53t58 140v319q0 87 -58 140t-161 53t-161 -53t-58 -140v-319zM164 0v1065h225v-434h201v71q0 176 116.5 282t327.5 106t328 -106t117 -282v-340q0 -176 -117 -281.5t-328 -105.5t-327.5 105.5t-116.5 281.5v72h-201v-434h-225z" />
    <glyph glyph-name="afii10097" unicode="&#x44f;" horiz-adv-x="1130" 
d="M479 868q-151 0 -151 -148t151 -147h262v295h-262zM102 0v106l209 300q-95 27 -152 110.5t-57 225.5t86.5 232.5t225.5 90.5h553v-1065h-226v393h-176l-254 -393h-209z" />
    <glyph glyph-name="afii10071" unicode="&#x451;" horiz-adv-x="1126" 
d="M653 1219v225h226v-225h-226zM342 631h442v67q0 87 -58 137t-163 50t-163 -50t-58 -137v-67zM250 1219v225h225v-225h-225zM117 367v327q0 180 125 288t328 108t321.5 -105t118.5 -287v-239h-668v-88q0 -88 60 -139.5t169 -51.5q181 0 211 142h226q-17 -163 -131.5 -255
t-314.5 -92t-322.5 105t-122.5 287z" />
    <glyph glyph-name="afii10099" unicode="&#x452;" horiz-adv-x="1220" 
d="M41 1083v177h147v184h226v-184h442v-177h-442v-264q117 129 292 129t278 -108t103 -295v-492q0 -165 -90 -285t-292 -120q-35 0 -76 6v196h33q91 0 145.5 58t54.5 180v436q0 106 -52.5 162.5t-141.5 56.5q-141 0 -254 -137v-606h-226v1083h-147z" />
    <glyph glyph-name="afii10100" unicode="&#x453;" horiz-adv-x="960" 
d="M752 1495v-78l-185 -209h-182l164 287h203zM164 0v1065h715v-197h-490v-868h-225z" />
    <glyph glyph-name="afii10101" unicode="&#x454;" horiz-adv-x="1118" 
d="M117 371v323q0 180 121.5 288t325.5 108t325 -105t121 -287v-12h-226v12q0 86 -58 136.5t-163 50.5t-163 -50t-58 -137v-77h322v-181h-322v-73q0 -86 59 -136.5t164 -50.5t162 50t57 137v18h226v-14q0 -180 -121.5 -288t-324.5 -108t-325 108t-122 288z" />
    <glyph glyph-name="afii10102" unicode="&#x455;" horiz-adv-x="1132" 
d="M102 367h226q0 -87 70.5 -137t175.5 -50t157.5 31.5t52.5 85.5q0 81 -116 111l-277 71q-125 33 -190.5 99t-65.5 184q0 149 113.5 238.5t311.5 89.5t314.5 -99.5t116.5 -281.5h-225q0 84 -60 130t-156 46t-143 -31t-47 -82q0 -72 117 -102l275 -68q258 -64 258 -287
q0 -150 -121 -245t-329 -95t-333 104t-125 288z" />
    <glyph glyph-name="afii10103" unicode="&#x456;" horiz-adv-x="552" 
d="M164 1219v225h225v-225h-225zM164 0v1065h225v-1065h-225z" />
    <glyph glyph-name="afii10104" unicode="&#x457;" horiz-adv-x="552" 
d="M367 1219v225h225v-225h-225zM164 0v1065h225v-1065h-225zM-37 1219v225h225v-225h-225z" />
    <glyph glyph-name="afii10105" unicode="&#x458;" horiz-adv-x="555" 
d="M166 1219v225h225v-225h-225zM-27 -152h47q146 0 146 183v1034h225v-1034q0 -228 -113.5 -305.5t-230.5 -77.5q-24 0 -74 4v196z" />
    <glyph glyph-name="afii10106" unicode="&#x459;" horiz-adv-x="1763" 
d="M1063 197h270q63 0 103.5 43.5t40.5 119.5t-40 120t-102 44h-272v-327zM61 0v205h23q95 0 137.5 64t42.5 200v596h799v-344h328q140 0 225.5 -95.5t85.5 -265.5t-85.5 -265t-225.5 -95h-553v868h-361v-397q0 -226 -98.5 -348.5t-261.5 -122.5h-56z" />
    <glyph glyph-name="afii10107" unicode="&#x45a;" horiz-adv-x="1763" 
d="M1063 197h270q63 0 103.5 43.5t40.5 119.5t-40 120t-102 44h-272v-327zM164 0v1065h225v-393h449v393h225v-344h328q140 0 225.5 -95.5t85.5 -265.5t-85.5 -265t-225.5 -95h-553v475h-449v-475h-225z" />
    <glyph glyph-name="afii10108" unicode="&#x45b;" horiz-adv-x="1220" 
d="M41 1083v177h147v184h226v-184h442v-177h-442v-264q117 129 292 129t278 -108t103 -295v-545h-225v524q0 106 -52.5 162.5t-141.5 56.5q-141 0 -254 -137v-606h-226v1083h-147z" />
    <glyph glyph-name="afii10109" unicode="&#x45c;" horiz-adv-x="1126" 
d="M817 1495v-78l-184 -209h-182l163 287h203zM164 0v1065h225v-434h141l310 434h186v-107l-295 -413l313 -439v-106h-202l-314 434h-139v-434h-225z" />
    <glyph glyph-name="afii10110" unicode="&#x45e;" horiz-adv-x="1046" 
d="M205 1450v25h192v-23q0 -56 35.5 -87.5t102.5 -31.5q139 0 139 119v23h190v-25q0 -130 -89.5 -205.5t-239.5 -75.5t-240 75.5t-90 205.5zM41 1065h209l280 -758l269 758h207v-107l-508 -1286h-185v82l107 246l-379 958v107z" />
    <glyph glyph-name="afii10193" unicode="&#x45f;" horiz-adv-x="1216" 
d="M164 0v1065h225v-868h438v868h226v-1065h-334v-258h-221v258h-334z" />
    <glyph glyph-name="afii10050" unicode="&#x490;" horiz-adv-x="1136" 
d="M184 0v1434h645v266h226v-481h-625v-1219h-246z" />
    <glyph glyph-name="afii10098" unicode="&#x491;" horiz-adv-x="950" 
d="M164 0v1065h483v258h221v-455h-479v-868h-225z" />
    <glyph glyph-name="endash" unicode="&#x2013;" horiz-adv-x="1226" 
d="M123 539v204h981v-204h-981z" />
    <glyph glyph-name="emdash" unicode="&#x2014;" horiz-adv-x="1732" 
d="M123 539v204h1487v-204h-1487z" />
    <glyph glyph-name="quoteleft" unicode="&#x2018;" horiz-adv-x="544" 
d="M125 934v106l168 404h178l-96 -510h-250z" />
    <glyph glyph-name="quoteright" unicode="&#x2019;" horiz-adv-x="544" 
d="M420 1444v-107l-168 -403h-178l96 510h250z" />
    <glyph glyph-name="quotesinglbase" unicode="&#x201a;" horiz-adv-x="532" 
d="M420 279v-107l-168 -403h-178l96 510h250z" />
    <glyph glyph-name="quotedblleft" unicode="&#x201c;" horiz-adv-x="915" 
d="M496 934v106l168 404h178l-97 -510h-249zM125 934v106l168 404h178l-96 -510h-250z" />
    <glyph glyph-name="quotedblright" unicode="&#x201d;" horiz-adv-x="915" 
d="M791 1444v-107l-168 -403h-179l97 510h250zM420 1444v-107l-168 -403h-178l96 510h250z" />
    <glyph glyph-name="quotedblbase" unicode="&#x201e;" horiz-adv-x="915" 
d="M791 279v-107l-168 -403h-179l97 510h250zM420 279v-107l-168 -403h-178l96 510h250z" />
    <glyph glyph-name="dagger" unicode="&#x2020;" horiz-adv-x="1110" 
d="M61 868v197h381v379h226v-379h381v-197h-381v-1196h-226v1196h-381z" />
    <glyph glyph-name="daggerdbl" unicode="&#x2021;" horiz-adv-x="1110" 
d="M61 276v197h381v395h-381v197h381v379h226v-379h381v-197h-381v-395h381v-197h-381v-604h-226v604h-381z" />
    <glyph glyph-name="bullet" unicode="&#x2022;" horiz-adv-x="880" 
d="M123 647v17q0 149 83.5 230t233.5 81t234 -81.5t84 -229.5v-17q0 -148 -84 -229.5t-234 -81.5t-233.5 81t-83.5 230z" />
    <glyph glyph-name="ellipsis" unicode="&#x2026;" horiz-adv-x="1382" 
d="M963 0v279h276v-279h-276zM553 0v279h276v-279h-276zM143 0v279h277v-279h-277z" />
    <glyph glyph-name="perthousand" unicode="&#x2030;" horiz-adv-x="2344" 
d="M1827 250q0 -52 32.5 -85.5t86.5 -33.5t86 33.5t32 85.5v176q0 52 -32 85.5t-86 33.5t-86.5 -33.5t-32.5 -85.5v-176zM1628 281v114q0 149 84 230.5t234 81.5t233.5 -81.5t83.5 -230.5v-114q0 -149 -83.5 -230.5t-233.5 -81.5t-234 81.5t-84 230.5zM1104 250
q0 -52 32.5 -85.5t86.5 -33.5t86 33.5t32 85.5v176q0 52 -32 85.5t-86 33.5t-86.5 -33.5t-32.5 -85.5v-176zM905 281v114q0 149 84 230.5t234 81.5t233.5 -81.5t83.5 -230.5v-114q0 -149 -83.5 -230.5t-233.5 -81.5t-234 81.5t-84 230.5zM307 0v82l830 1352h174v-82
l-830 -1352h-174zM281 1008q0 -52 32 -85.5t86 -33.5t86.5 33.5t32.5 85.5v176q0 52 -32.5 85.5t-86.5 33.5t-86 -33.5t-32 -85.5v-176zM82 1038v115q0 149 83.5 230t233.5 81t234 -81.5t84 -229.5v-115q0 -148 -84 -229.5t-234 -81.5t-233.5 81t-83.5 230z" />
    <glyph glyph-name="guilsinglleft" unicode="&#x2039;" horiz-adv-x="686" 
d="M563 993v-65l-244 -365l244 -366v-66h-194l-287 432l287 430h194z" />
    <glyph glyph-name="guilsinglright" unicode="&#x203a;" horiz-adv-x="686" 
d="M123 131v66l244 366l-244 365v65h194l287 -430l-287 -432h-194z" />
    <glyph glyph-name="fraction" unicode="&#x2044;" horiz-adv-x="798" 
d="M-102 0v82l829 1352h174v-82l-829 -1352h-174z" />
    <glyph glyph-name="Euro" unicode="&#x20ac;" horiz-adv-x="1380" 
d="M61 436v197h172v168h-172v196h172q14 221 151 344t362 123t368 -125t143 -370v-21h-213v21q0 141 -80 216t-210 75t-209 -67.5t-86 -195.5h370v-196h-370v-168h370v-197h-370q11 -126 86 -194t211 -68t212 73.5t76 217.5v20h213v-20q0 -242 -134.5 -369t-366.5 -127
t-371 119.5t-152 347.5h-172z" />
    <glyph glyph-name="afii61352" unicode="&#x2116;" horiz-adv-x="2041" 
d="M1524 1008q0 -52 32 -85.5t86 -33.5t86.5 33.5t32.5 85.5v176q0 52 -32.5 85.5t-86.5 33.5t-86 -33.5t-32 -85.5v-176zM1325 1038v115q0 149 83.5 230t233.5 81t234 -81.5t84 -229.5v-115q0 -148 -84 -229.5t-234 -81.5t-233.5 81t-83.5 230zM1325 416v172h635v-172h-635
zM184 0v1434h207l559 -992v992h226v-1434h-207l-559 991v-991h-226z" />
    <glyph glyph-name="trademark" unicode="&#x2122;" horiz-adv-x="1406" 
d="M641 772v662h127l190 -297l195 297h125v-662h-131v449l-148 -234h-84l-143 230v-445h-131zM20 1317v117h517v-117h-193v-545h-131v545h-193z" />
    <glyph glyph-name="partialdiff" unicode="&#x2202;" horiz-adv-x="1155" 
d="M319 350q0 -74 55.5 -122t160.5 -48t170 55.5t73 145.5l21 244q-98 125 -230 125q-95 0 -160 -55t-77 -163t-13 -182zM92 315q0 53 18 245t132 293t300 101t292 -166q4 114 4 115q-6 344 -340 344q-114 0 -224 -26l15 198q113 29 266 29q229 0 358 -139t129 -375
q0 -160 -38 -567q-17 -183 -148.5 -287.5t-331.5 -104.5t-316 92.5t-116 247.5z" />
    <glyph glyph-name="uni2206" unicode="&#x2206;" horiz-adv-x="1347" 
d="M346 215h641l-317 891zM41 0v84l512 1350h242l512 -1350v-84h-1266z" />
    <glyph glyph-name="product" unicode="&#x220f;" horiz-adv-x="1390" 
d="M184 -154v1588h1022v-1588h-225v1383h-571v-1383h-226z" />
    <glyph glyph-name="summation" unicode="&#x2211;" horiz-adv-x="1159" 
d="M102 1434h928v-205h-676l332 -586l-332 -592h703v-205h-955v205l332 592l-332 586v205z" />
    <glyph glyph-name="radical" unicode="&#x221a;" horiz-adv-x="1138" 
d="M2 682v205h344l244 -697l330 1442h204v-80l-395 -1706h-227l-316 836h-184z" />
    <glyph glyph-name="infinity" unicode="&#x221e;" horiz-adv-x="1832" 
d="M1487 652q0 80 -50 131t-117 51t-104 -29q-55 -43 -102 -94l-57 -58l106 -110q93 -78 148 -72q76 0 126 50.5t50 130.5zM348 652q0 -80 50 -130.5t125 -50.5t147 72q3 3 18.5 17.5t32.5 33.5l57 59l-57 58q-35 39 -59 61t-64.5 44.5t-73.5 17.5q-76 0 -126 -51t-50 -131z
M1315 264q-215 0 -397 228l-11 -13q-181 -217 -389 -217q-182 0 -288 112t-107 284q1 170 107 282t299 113q193 0 374 -211l15 -17l14 17q184 211 374 211q190 1 296 -113q108 -114 108 -282t-108 -280q-108 -114 -287 -114z" />
    <glyph glyph-name="integral" unicode="&#x222b;" horiz-adv-x="649" 
d="M0 -131h68q145 0 145 151v1082q0 153 91 242.5t247 89.5h98v-197h-67q-148 0 -148 -152v-1081q0 -153 -91 -242.5t-245 -89.5h-98v197z" />
    <glyph glyph-name="approxequal" unicode="&#x2248;" horiz-adv-x="1087" 
d="M375 1079q88 0 162 -51l36 -24q71 -50 106 -50t63 24.5t69 90.5l154 -92q-120 -225 -252 -225q-79 0 -135 36l-46 27q-24 12 -61 37t-67 25t-58.5 -25t-69.5 -90l-153 92q117 225 252 225zM375 649q88 0 162 -51l36 -25q69 -49 105 -49t64 24.5t69 90.5l154 -92
q-120 -225 -252 -225q-79 0 -135 36l-46 27q-22 11 -59 36q-38 25 -69 25t-59 -24.5t-69 -89.5l-153 92q117 225 252 225z" />
    <glyph glyph-name="notequal" unicode="&#x2260;" horiz-adv-x="1146" 
d="M123 0v82l147 244h-147v190h264l152 252h-416v188h530l187 306h184v-82l-135 -224h135v-188h-250l-153 -252h403v-190h-520l-197 -326h-184z" />
    <glyph glyph-name="lessequal" unicode="&#x2264;" horiz-adv-x="1064" 
d="M942 1200v-156l-573 -268l573 -268v-156h-108l-711 332v184l711 332h108zM123 0v188h819v-188h-819z" />
    <glyph glyph-name="greaterequal" unicode="&#x2265;" horiz-adv-x="1064" 
d="M123 352v156l573 268l-573 268v156h108l711 -332v-184l-711 -332h-108zM123 0v188h819v-188h-819z" />
    <glyph glyph-name="lozenge" unicode="&#x25ca;" horiz-adv-x="1134" 
d="M340 719l227 -438l228 436l-228 434zM102 717l379 717h172l379 -717l-381 -717h-170z" />
    <glyph glyph-name="uni25FC" unicode="&#x25fc;" horiz-adv-x="1064" 
d="M0 0v1065h1065v-1065h-1065z" />
    </font>
</defs>
</svg>
